<mxfile modified="2023-08-04T05:52:15.178Z" host="app.diagrams.net" agent="Mozilla/5.0 (Windows NT 10.0; Win64; x64) AppleWebKit/537.36 (KHTML, like Gecko) Chrome/117.0.0.0 Safari/537.36" etag="uRf2gkQ792cw7Ji4QHjo" version="21.6.6" type="github">
  <diagram id="-7mXHD-GepfTN9AgLk7E" name="Page-1">
    <mxGraphModel dx="1503" dy="1901" grid="1" gridSize="10" guides="1" tooltips="1" connect="1" arrows="1" fold="1" page="1" pageScale="1" pageWidth="827" pageHeight="1169" math="1" shadow="0">
      <root>
        <mxCell id="0" />
        <mxCell id="1" parent="0" />
        <mxCell id="J039G_M1f-D1EtfRBh9d-123" value="" style="endArrow=classic;html=1;rounded=0;endSize=5;startSize=5;" edge="1" parent="1">
          <mxGeometry width="50" height="50" relative="1" as="geometry">
            <mxPoint x="-790" y="-461.5" as="sourcePoint" />
            <mxPoint x="-290" y="-461.5" as="targetPoint" />
          </mxGeometry>
        </mxCell>
        <mxCell id="J039G_M1f-D1EtfRBh9d-22" value="" style="rounded=0;whiteSpace=wrap;html=1;" vertex="1" parent="1">
          <mxGeometry x="-770.5" y="-990" width="380.5" height="320" as="geometry" />
        </mxCell>
        <mxCell id="J039G_M1f-D1EtfRBh9d-19" value="" style="rounded=1;whiteSpace=wrap;html=1;fillColor=#d5e8d4;strokeColor=#82b366;gradientColor=#97d077;gradientDirection=north;arcSize=4;" vertex="1" parent="1">
          <mxGeometry x="-763" y="-861" width="365" height="181" as="geometry" />
        </mxCell>
        <mxCell id="Uu9AmT3nj6WKYAnCRlqI-411" value="" style="rounded=0;whiteSpace=wrap;html=1;dashed=1;strokeColor=#FF0000;strokeWidth=1;fontColor=#FF0000;shadow=0;" parent="1" vertex="1">
          <mxGeometry x="-111" y="1256" width="401" height="220" as="geometry" />
        </mxCell>
        <mxCell id="Uu9AmT3nj6WKYAnCRlqI-1" value="" style="shape=partialRectangle;whiteSpace=wrap;html=1;bottom=1;right=1;left=1;top=0;fillColor=none;routingCenterX=-0.5;rotation=90;strokeWidth=2;" parent="1" vertex="1">
          <mxGeometry x="35" y="137" width="86" height="10" as="geometry" />
        </mxCell>
        <mxCell id="Uu9AmT3nj6WKYAnCRlqI-2" value="" style="shape=partialRectangle;whiteSpace=wrap;html=1;bottom=1;right=1;left=1;top=0;fillColor=none;routingCenterX=-0.5;rotation=-90;strokeWidth=2;" parent="1" vertex="1">
          <mxGeometry x="139" y="135" width="87" height="11" as="geometry" />
        </mxCell>
        <mxCell id="Uu9AmT3nj6WKYAnCRlqI-14" value="" style="shape=partialRectangle;whiteSpace=wrap;html=1;bottom=1;right=1;left=1;top=0;fillColor=none;routingCenterX=-0.5;rotation=90;strokeWidth=2;" parent="1" vertex="1">
          <mxGeometry x="172" y="138" width="91" height="10" as="geometry" />
        </mxCell>
        <mxCell id="Uu9AmT3nj6WKYAnCRlqI-15" value="" style="shape=partialRectangle;whiteSpace=wrap;html=1;bottom=1;right=1;left=1;top=0;fillColor=none;routingCenterX=-0.5;rotation=-90;strokeWidth=2;" parent="1" vertex="1">
          <mxGeometry x="198" y="137" width="92" height="13" as="geometry" />
        </mxCell>
        <mxCell id="Uu9AmT3nj6WKYAnCRlqI-17" value="&lt;font style=&quot;font-size: 24px&quot;&gt;&lt;span&gt;3&lt;/span&gt;&lt;/font&gt;" style="text;html=1;resizable=0;points=[];autosize=1;align=left;verticalAlign=top;spacingTop=-4;fontStyle=0" parent="1" vertex="1">
          <mxGeometry x="222" y="100" width="30" height="20" as="geometry" />
        </mxCell>
        <mxCell id="Uu9AmT3nj6WKYAnCRlqI-18" value="&lt;font style=&quot;font-size: 24px&quot;&gt;&lt;span&gt;4&lt;/span&gt;&lt;/font&gt;" style="text;html=1;resizable=0;points=[];autosize=1;align=left;verticalAlign=top;spacingTop=-4;fontStyle=0" parent="1" vertex="1">
          <mxGeometry x="221.5" y="128" width="30" height="20" as="geometry" />
        </mxCell>
        <mxCell id="Uu9AmT3nj6WKYAnCRlqI-20" value="&lt;font style=&quot;font-size: 24px&quot;&gt;&lt;span&gt;5&lt;/span&gt;&lt;/font&gt;" style="text;html=1;resizable=0;points=[];autosize=1;align=left;verticalAlign=top;spacingTop=-4;fontStyle=0" parent="1" vertex="1">
          <mxGeometry x="223" y="157" width="30" height="20" as="geometry" />
        </mxCell>
        <mxCell id="Uu9AmT3nj6WKYAnCRlqI-28" value="" style="line;strokeWidth=2;html=1;" parent="1" vertex="1">
          <mxGeometry x="80" y="141" width="20" height="10" as="geometry" />
        </mxCell>
        <mxCell id="Uu9AmT3nj6WKYAnCRlqI-29" value="" style="line;strokeWidth=2;html=1;" parent="1" vertex="1">
          <mxGeometry x="117.5" y="141" width="20" height="10" as="geometry" />
        </mxCell>
        <mxCell id="Uu9AmT3nj6WKYAnCRlqI-30" value="" style="line;strokeWidth=2;html=1;" parent="1" vertex="1">
          <mxGeometry x="154.5" y="141" width="20" height="10" as="geometry" />
        </mxCell>
        <mxCell id="Uu9AmT3nj6WKYAnCRlqI-31" value="" style="line;strokeWidth=2;html=1;" parent="1" vertex="1">
          <mxGeometry x="79" y="170" width="20" height="10" as="geometry" />
        </mxCell>
        <mxCell id="Uu9AmT3nj6WKYAnCRlqI-32" value="" style="line;strokeWidth=2;html=1;" parent="1" vertex="1">
          <mxGeometry x="116.5" y="170" width="20" height="10" as="geometry" />
        </mxCell>
        <mxCell id="Uu9AmT3nj6WKYAnCRlqI-33" value="" style="line;strokeWidth=2;html=1;" parent="1" vertex="1">
          <mxGeometry x="153.5" y="170" width="20" height="10" as="geometry" />
        </mxCell>
        <mxCell id="Uu9AmT3nj6WKYAnCRlqI-34" value="" style="group" parent="1" vertex="1" connectable="0">
          <mxGeometry x="80" y="107" width="94.5" height="10" as="geometry" />
        </mxCell>
        <mxCell id="Uu9AmT3nj6WKYAnCRlqI-3" value="" style="line;strokeWidth=2;html=1;" parent="Uu9AmT3nj6WKYAnCRlqI-34" vertex="1">
          <mxGeometry width="20" height="10" as="geometry" />
        </mxCell>
        <mxCell id="Uu9AmT3nj6WKYAnCRlqI-25" value="" style="line;strokeWidth=2;html=1;" parent="Uu9AmT3nj6WKYAnCRlqI-34" vertex="1">
          <mxGeometry x="37.5" width="20" height="10" as="geometry" />
        </mxCell>
        <mxCell id="Uu9AmT3nj6WKYAnCRlqI-26" value="" style="line;strokeWidth=2;html=1;" parent="Uu9AmT3nj6WKYAnCRlqI-34" vertex="1">
          <mxGeometry x="74.5" width="20" height="10" as="geometry" />
        </mxCell>
        <mxCell id="Uu9AmT3nj6WKYAnCRlqI-36" value="&lt;font&gt;&lt;font style=&quot;font-size: 18px&quot;&gt;3 times first column&lt;br&gt;plus&lt;br&gt;4 times second column&lt;br&gt;plus&lt;br&gt;5 times third column&lt;/font&gt;&lt;br&gt;&lt;/font&gt;" style="text;html=1;resizable=0;points=[];autosize=1;align=left;verticalAlign=top;spacingTop=-4;fontStyle=0" parent="1" vertex="1">
          <mxGeometry x="290" y="92" width="200" height="80" as="geometry" />
        </mxCell>
        <mxCell id="Uu9AmT3nj6WKYAnCRlqI-45" value="" style="group" parent="1" vertex="1" connectable="0">
          <mxGeometry x="515" y="129" width="145" height="22" as="geometry" />
        </mxCell>
        <mxCell id="Uu9AmT3nj6WKYAnCRlqI-37" value="" style="shape=partialRectangle;whiteSpace=wrap;html=1;bottom=1;right=1;left=1;top=0;fillColor=none;routingCenterX=-0.5;rotation=90;strokeWidth=2;" parent="Uu9AmT3nj6WKYAnCRlqI-45" vertex="1">
          <mxGeometry y="10" width="41" height="10" as="geometry" />
        </mxCell>
        <mxCell id="Uu9AmT3nj6WKYAnCRlqI-38" value="" style="shape=partialRectangle;whiteSpace=wrap;html=1;bottom=1;right=1;left=1;top=0;fillColor=none;routingCenterX=-0.5;rotation=-90;strokeWidth=2;" parent="Uu9AmT3nj6WKYAnCRlqI-45" vertex="1">
          <mxGeometry x="105" y="9" width="40" height="13" as="geometry" />
        </mxCell>
        <mxCell id="Uu9AmT3nj6WKYAnCRlqI-42" value="&lt;font style=&quot;font-size: 24px&quot;&gt;1&lt;/font&gt;" style="text;html=1;resizable=0;points=[];autosize=1;align=left;verticalAlign=top;spacingTop=-4;fontStyle=1" parent="Uu9AmT3nj6WKYAnCRlqI-45" vertex="1">
          <mxGeometry x="31" width="30" height="20" as="geometry" />
        </mxCell>
        <mxCell id="Uu9AmT3nj6WKYAnCRlqI-43" value="&lt;font style=&quot;font-size: 24px&quot;&gt;2&lt;/font&gt;" style="text;html=1;resizable=0;points=[];autosize=1;align=left;verticalAlign=top;spacingTop=-4;fontStyle=1" parent="Uu9AmT3nj6WKYAnCRlqI-45" vertex="1">
          <mxGeometry x="67" width="30" height="20" as="geometry" />
        </mxCell>
        <mxCell id="Uu9AmT3nj6WKYAnCRlqI-44" value="&lt;font style=&quot;font-size: 24px&quot;&gt;7&lt;/font&gt;" style="text;html=1;resizable=0;points=[];autosize=1;align=left;verticalAlign=top;spacingTop=-4;fontStyle=1" parent="Uu9AmT3nj6WKYAnCRlqI-45" vertex="1">
          <mxGeometry x="103" width="30" height="20" as="geometry" />
        </mxCell>
        <mxCell id="Uu9AmT3nj6WKYAnCRlqI-46" value="" style="shape=partialRectangle;whiteSpace=wrap;html=1;bottom=1;right=1;left=1;top=0;fillColor=none;routingCenterX=-0.5;rotation=90;strokeWidth=2;" parent="1" vertex="1">
          <mxGeometry x="618" y="142" width="86" height="10" as="geometry" />
        </mxCell>
        <mxCell id="Uu9AmT3nj6WKYAnCRlqI-47" value="" style="shape=partialRectangle;whiteSpace=wrap;html=1;bottom=1;right=1;left=1;top=0;fillColor=none;routingCenterX=-0.5;rotation=-90;strokeWidth=2;" parent="1" vertex="1">
          <mxGeometry x="722" y="140" width="87" height="11" as="geometry" />
        </mxCell>
        <mxCell id="Uu9AmT3nj6WKYAnCRlqI-48" value="" style="line;strokeWidth=2;html=1;" parent="1" vertex="1">
          <mxGeometry x="663" y="146" width="20" height="10" as="geometry" />
        </mxCell>
        <mxCell id="Uu9AmT3nj6WKYAnCRlqI-49" value="" style="line;strokeWidth=2;html=1;" parent="1" vertex="1">
          <mxGeometry x="700.5" y="146" width="20" height="10" as="geometry" />
        </mxCell>
        <mxCell id="Uu9AmT3nj6WKYAnCRlqI-50" value="" style="line;strokeWidth=2;html=1;" parent="1" vertex="1">
          <mxGeometry x="737.5" y="146" width="20" height="10" as="geometry" />
        </mxCell>
        <mxCell id="Uu9AmT3nj6WKYAnCRlqI-51" value="" style="line;strokeWidth=2;html=1;" parent="1" vertex="1">
          <mxGeometry x="662" y="175" width="20" height="10" as="geometry" />
        </mxCell>
        <mxCell id="Uu9AmT3nj6WKYAnCRlqI-52" value="" style="line;strokeWidth=2;html=1;" parent="1" vertex="1">
          <mxGeometry x="699.5" y="175" width="20" height="10" as="geometry" />
        </mxCell>
        <mxCell id="Uu9AmT3nj6WKYAnCRlqI-53" value="" style="line;strokeWidth=2;html=1;" parent="1" vertex="1">
          <mxGeometry x="736.5" y="175" width="20" height="10" as="geometry" />
        </mxCell>
        <mxCell id="Uu9AmT3nj6WKYAnCRlqI-54" value="" style="group" parent="1" vertex="1" connectable="0">
          <mxGeometry x="663" y="112" width="94.5" height="10" as="geometry" />
        </mxCell>
        <mxCell id="Uu9AmT3nj6WKYAnCRlqI-55" value="" style="line;strokeWidth=2;html=1;" parent="Uu9AmT3nj6WKYAnCRlqI-54" vertex="1">
          <mxGeometry width="20" height="10" as="geometry" />
        </mxCell>
        <mxCell id="Uu9AmT3nj6WKYAnCRlqI-56" value="" style="line;strokeWidth=2;html=1;" parent="Uu9AmT3nj6WKYAnCRlqI-54" vertex="1">
          <mxGeometry x="37.5" width="20" height="10" as="geometry" />
        </mxCell>
        <mxCell id="Uu9AmT3nj6WKYAnCRlqI-57" value="" style="line;strokeWidth=2;html=1;" parent="Uu9AmT3nj6WKYAnCRlqI-54" vertex="1">
          <mxGeometry x="74.5" width="20" height="10" as="geometry" />
        </mxCell>
        <mxCell id="Uu9AmT3nj6WKYAnCRlqI-58" value="and suppose multiply on the left by some&amp;nbsp;" style="text;html=1;resizable=0;points=[];autosize=1;align=left;verticalAlign=top;spacingTop=-4;" parent="1" vertex="1">
          <mxGeometry x="87.5" y="-13" width="240" height="20" as="geometry" />
        </mxCell>
        <mxCell id="Uu9AmT3nj6WKYAnCRlqI-59" value="and then we&#39;ll say how martrix multiplication works and we&#39;ll see that it&#39;s true" style="text;html=1;resizable=0;points=[];autosize=1;align=left;verticalAlign=top;spacingTop=-4;" parent="1" vertex="1">
          <mxGeometry x="27.5" y="7" width="420" height="20" as="geometry" />
        </mxCell>
        <mxCell id="Uu9AmT3nj6WKYAnCRlqI-60" value="&lt;b&gt;but maybe already I&#39;m sort of bringing up the central idea of linear algebra&lt;/b&gt;" style="text;html=1;resizable=0;points=[];autosize=1;align=left;verticalAlign=top;spacingTop=-4;" parent="1" vertex="1">
          <mxGeometry x="58.5" y="-33" width="440" height="20" as="geometry" />
        </mxCell>
        <mxCell id="Uu9AmT3nj6WKYAnCRlqI-61" value="is how these matrices operation by rows as well as by columns&amp;nbsp;&lt;br&gt;" style="text;html=1;resizable=0;points=[];autosize=1;align=left;verticalAlign=top;spacingTop=-4;" parent="1" vertex="1">
          <mxGeometry x="45.5" y="37" width="350" height="20" as="geometry" />
        </mxCell>
        <mxCell id="Uu9AmT3nj6WKYAnCRlqI-62" value="how does it work by rows? what -- so that&#39;s a row vector&amp;nbsp; &amp;nbsp;&lt;br&gt;what‘s the output? what&#39;s the product of a row times a matrix?&lt;br&gt;" style="text;html=1;resizable=0;points=[];autosize=1;align=left;verticalAlign=top;spacingTop=-4;" parent="1" vertex="1">
          <mxGeometry x="56" y="209" width="340" height="30" as="geometry" />
        </mxCell>
        <mxCell id="Uu9AmT3nj6WKYAnCRlqI-63" value="&lt;font style=&quot;font-size: 48px&quot;&gt;=&lt;/font&gt;" style="text;html=1;resizable=0;points=[];autosize=1;align=left;verticalAlign=top;spacingTop=-4;" parent="1" vertex="1">
          <mxGeometry x="253" y="112" width="40" height="30" as="geometry" />
        </mxCell>
        <mxCell id="Uu9AmT3nj6WKYAnCRlqI-64" value="&lt;font style=&quot;font-size: 48px&quot;&gt;=&lt;/font&gt;" style="text;html=1;resizable=0;points=[];autosize=1;align=left;verticalAlign=top;spacingTop=-4;" parent="1" vertex="1">
          <mxGeometry x="778" y="115" width="40" height="30" as="geometry" />
        </mxCell>
        <mxCell id="Uu9AmT3nj6WKYAnCRlqI-65" value="so: A matrix times a column is a column (and we konw what column it is)&lt;br&gt;&lt;font color=&quot;#000099&quot;&gt;and we have a combination, a linear combination of the column&lt;/font&gt;&amp;nbsp;&lt;br&gt;" style="text;html=1;resizable=0;points=[];autosize=1;align=left;verticalAlign=top;spacingTop=-4;" parent="1" vertex="1">
          <mxGeometry x="31" y="248" width="400" height="30" as="geometry" />
        </mxCell>
        <mxCell id="Uu9AmT3nj6WKYAnCRlqI-66" value="Over here, I&#39;m doing a row times matrix. And what&#39;s the answer? It&#39;s one of that first row" style="text;html=1;resizable=0;points=[];autosize=1;align=left;verticalAlign=top;spacingTop=-4;" parent="1" vertex="1">
          <mxGeometry x="496.5" y="209" width="480" height="20" as="geometry" />
        </mxCell>
        <mxCell id="Uu9AmT3nj6WKYAnCRlqI-67" value="&lt;b&gt;So:It&#39;s&amp;nbsp;&lt;/b&gt;&lt;br&gt;" style="text;html=1;resizable=0;points=[];autosize=1;align=left;verticalAlign=top;spacingTop=-4;" parent="1" vertex="1">
          <mxGeometry x="816" y="52" width="60" height="20" as="geometry" />
        </mxCell>
        <mxCell id="Uu9AmT3nj6WKYAnCRlqI-228" style="edgeStyle=orthogonalEdgeStyle;rounded=0;orthogonalLoop=1;jettySize=auto;html=1;entryX=0.5;entryY=1;entryDx=0;entryDy=0;strokeWidth=2;fontColor=#FF0000;" parent="1" source="Uu9AmT3nj6WKYAnCRlqI-68" target="Uu9AmT3nj6WKYAnCRlqI-207" edge="1">
          <mxGeometry relative="1" as="geometry">
            <Array as="points">
              <mxPoint x="1070" y="127" />
              <mxPoint x="1070" y="983" />
            </Array>
          </mxGeometry>
        </mxCell>
        <mxCell id="Uu9AmT3nj6WKYAnCRlqI-68" value="&lt;font style=&quot;font-size: 18px&quot;&gt;&amp;nbsp; &amp;nbsp; &amp;nbsp; 1 times row one&lt;br&gt;plus&lt;br&gt;&amp;nbsp; &amp;nbsp; &amp;nbsp; 2 times row two&lt;br&gt;plus&amp;nbsp;&lt;br&gt;&amp;nbsp; &amp;nbsp; &amp;nbsp; &amp;nbsp;7 times row three&lt;/font&gt;&lt;br&gt;" style="text;html=1;resizable=0;points=[];autosize=1;align=left;verticalAlign=top;spacingTop=-4;" parent="1" vertex="1">
          <mxGeometry x="809" y="87" width="190" height="80" as="geometry" />
        </mxCell>
        <mxCell id="Uu9AmT3nj6WKYAnCRlqI-69" value="When --as we do matrix multiplication:（进行矩阵乘法时）&lt;br&gt;keep your eye on what it&#39;s doing with whole vectors.(注意用整个向量来思考）&lt;br&gt;" style="text;html=1;resizable=0;points=[];autosize=1;align=left;verticalAlign=top;spacingTop=-4;" parent="1" vertex="1">
          <mxGeometry x="300" y="287" width="430" height="30" as="geometry" />
        </mxCell>
        <mxCell id="Uu9AmT3nj6WKYAnCRlqI-70" value="And what It&#39;s doing in the case is it&#39;s combining the rows&amp;nbsp; and we have a combination, a linear combination of the rows&amp;nbsp;" style="text;html=1;resizable=0;points=[];autosize=1;align=left;verticalAlign=top;spacingTop=-4;" parent="1" vertex="1">
          <mxGeometry x="496.5" y="233" width="650" height="20" as="geometry" />
        </mxCell>
        <mxCell id="Uu9AmT3nj6WKYAnCRlqI-71" value="&lt;b&gt;Okay：then below to use that&lt;/b&gt;" style="text;html=1;resizable=0;points=[];autosize=1;align=left;verticalAlign=top;spacingTop=-4;" parent="1" vertex="1">
          <mxGeometry x="78" y="360" width="180" height="20" as="geometry" />
        </mxCell>
        <mxCell id="Uu9AmT3nj6WKYAnCRlqI-72" value="&lt;b&gt;&lt;font style=&quot;font-size: 24px&quot;&gt;Matrices：&lt;/font&gt;&lt;/b&gt;" style="text;html=1;resizable=0;points=[];autosize=1;align=left;verticalAlign=top;spacingTop=-4;" parent="1" vertex="1">
          <mxGeometry x="53" y="410" width="140" height="20" as="geometry" />
        </mxCell>
        <mxCell id="Uu9AmT3nj6WKYAnCRlqI-78" value="" style="shape=partialRectangle;whiteSpace=wrap;html=1;bottom=1;right=1;left=1;top=0;fillColor=none;routingCenterX=-0.5;rotation=90;strokeWidth=2;" parent="1" vertex="1">
          <mxGeometry x="62" y="492" width="86" height="10" as="geometry" />
        </mxCell>
        <mxCell id="Uu9AmT3nj6WKYAnCRlqI-79" value="" style="shape=partialRectangle;whiteSpace=wrap;html=1;bottom=1;right=1;left=1;top=0;fillColor=none;routingCenterX=-0.5;rotation=-90;strokeWidth=2;" parent="1" vertex="1">
          <mxGeometry x="166" y="490" width="87" height="11" as="geometry" />
        </mxCell>
        <mxCell id="Uu9AmT3nj6WKYAnCRlqI-80" value="&lt;font style=&quot;font-size: 18px&quot;&gt;&lt;b&gt;1&lt;/b&gt;&lt;/font&gt;" style="text;html=1;resizable=0;points=[];autosize=1;align=left;verticalAlign=top;spacingTop=-4;" parent="1" vertex="1">
          <mxGeometry x="117" y="456" width="30" height="20" as="geometry" />
        </mxCell>
        <mxCell id="Uu9AmT3nj6WKYAnCRlqI-81" value="&lt;b&gt;&lt;font style=&quot;font-size: 18px&quot;&gt;2&lt;/font&gt;&lt;/b&gt;" style="text;html=1;resizable=0;points=[];autosize=1;align=left;verticalAlign=top;spacingTop=-4;" parent="1" vertex="1">
          <mxGeometry x="148" y="456" width="30" height="20" as="geometry" />
        </mxCell>
        <mxCell id="Uu9AmT3nj6WKYAnCRlqI-82" value="&lt;b&gt;&lt;font style=&quot;font-size: 18px&quot;&gt;1&lt;/font&gt;&lt;/b&gt;" style="text;html=1;resizable=0;points=[];autosize=1;align=left;verticalAlign=top;spacingTop=-4;" parent="1" vertex="1">
          <mxGeometry x="180.5" y="456" width="30" height="20" as="geometry" />
        </mxCell>
        <mxCell id="Uu9AmT3nj6WKYAnCRlqI-83" value="&lt;font style=&quot;font-size: 18px&quot;&gt;&lt;b&gt;3&lt;/b&gt;&lt;/font&gt;" style="text;html=1;resizable=0;points=[];autosize=1;align=left;verticalAlign=top;spacingTop=-4;" parent="1" vertex="1">
          <mxGeometry x="117" y="487" width="30" height="20" as="geometry" />
        </mxCell>
        <mxCell id="Uu9AmT3nj6WKYAnCRlqI-84" value="&lt;b&gt;&lt;font style=&quot;font-size: 18px&quot;&gt;8&lt;/font&gt;&lt;/b&gt;" style="text;html=1;resizable=0;points=[];autosize=1;align=left;verticalAlign=top;spacingTop=-4;" parent="1" vertex="1">
          <mxGeometry x="148" y="487" width="30" height="20" as="geometry" />
        </mxCell>
        <mxCell id="Uu9AmT3nj6WKYAnCRlqI-85" value="&lt;b&gt;&lt;font style=&quot;font-size: 18px&quot;&gt;1&lt;/font&gt;&lt;/b&gt;" style="text;html=1;resizable=0;points=[];autosize=1;align=left;verticalAlign=top;spacingTop=-4;" parent="1" vertex="1">
          <mxGeometry x="180.5" y="487" width="30" height="20" as="geometry" />
        </mxCell>
        <mxCell id="Uu9AmT3nj6WKYAnCRlqI-86" value="&lt;font style=&quot;font-size: 18px&quot;&gt;&lt;b&gt;0&lt;/b&gt;&lt;/font&gt;" style="text;html=1;resizable=0;points=[];autosize=1;align=left;verticalAlign=top;spacingTop=-4;" parent="1" vertex="1">
          <mxGeometry x="118" y="514" width="30" height="20" as="geometry" />
        </mxCell>
        <mxCell id="Uu9AmT3nj6WKYAnCRlqI-87" value="&lt;b&gt;&lt;font style=&quot;font-size: 18px&quot;&gt;4&lt;/font&gt;&lt;/b&gt;" style="text;html=1;resizable=0;points=[];autosize=1;align=left;verticalAlign=top;spacingTop=-4;" parent="1" vertex="1">
          <mxGeometry x="149" y="514" width="30" height="20" as="geometry" />
        </mxCell>
        <mxCell id="Uu9AmT3nj6WKYAnCRlqI-88" value="&lt;b&gt;&lt;font style=&quot;font-size: 18px&quot;&gt;1&lt;/font&gt;&lt;/b&gt;" style="text;html=1;resizable=0;points=[];autosize=1;align=left;verticalAlign=top;spacingTop=-4;" parent="1" vertex="1">
          <mxGeometry x="181.5" y="514" width="30" height="20" as="geometry" />
        </mxCell>
        <mxCell id="Uu9AmT3nj6WKYAnCRlqI-89" value="Okay, so my question is what&#39;s the matrix that does this first step" style="text;html=1;resizable=0;points=[];autosize=1;align=left;verticalAlign=top;spacingTop=-4;" parent="1" vertex="1">
          <mxGeometry x="215" y="418" width="360" height="20" as="geometry" />
        </mxCell>
        <mxCell id="Uu9AmT3nj6WKYAnCRlqI-90" value="在消元法求解的目的就是为了引入解决该处需要一个什么矩阵来满足条件：&lt;br&gt;" style="text;html=1;resizable=0;points=[];autosize=1;align=left;verticalAlign=top;spacingTop=-4;" parent="1" vertex="1">
          <mxGeometry x="249" y="448" width="410" height="20" as="geometry" />
        </mxCell>
        <mxCell id="Uu9AmT3nj6WKYAnCRlqI-91" value="so this is going to be marix that&#39;s going to subtract 3 times row one from row two，and leaves the other rows the same&amp;nbsp;&lt;br&gt;（因此这里需要一个矩阵，从行二中减去3倍行一，而其它行不变）&lt;br&gt;" style="text;html=1;resizable=0;points=[];autosize=1;align=left;verticalAlign=top;spacingTop=-4;" parent="1" vertex="1">
          <mxGeometry x="238" y="488" width="650" height="30" as="geometry" />
        </mxCell>
        <mxCell id="Uu9AmT3nj6WKYAnCRlqI-98" style="edgeStyle=orthogonalEdgeStyle;rounded=0;orthogonalLoop=1;jettySize=auto;html=1;entryX=0.06;entryY=0.05;entryDx=0;entryDy=0;entryPerimeter=0;strokeWidth=1;" parent="1" source="Uu9AmT3nj6WKYAnCRlqI-92" target="Uu9AmT3nj6WKYAnCRlqI-95" edge="1">
          <mxGeometry relative="1" as="geometry">
            <Array as="points">
              <mxPoint x="423" y="440" />
              <mxPoint x="13" y="440" />
            </Array>
          </mxGeometry>
        </mxCell>
        <mxCell id="Uu9AmT3nj6WKYAnCRlqI-92" value="that takes -- subtracts 3 of equation one from equation two?" style="text;html=1;resizable=0;points=[];autosize=1;align=left;verticalAlign=top;spacingTop=-4;" parent="1" vertex="1">
          <mxGeometry x="257.5" y="467" width="330" height="20" as="geometry" />
        </mxCell>
        <mxCell id="Uu9AmT3nj6WKYAnCRlqI-93" value="" style="shape=partialRectangle;whiteSpace=wrap;html=1;bottom=1;right=1;left=1;top=0;fillColor=none;routingCenterX=-0.5;rotation=90;strokeWidth=2;" parent="1" vertex="1">
          <mxGeometry x="-70" y="494" width="86" height="10" as="geometry" />
        </mxCell>
        <mxCell id="Uu9AmT3nj6WKYAnCRlqI-94" value="" style="shape=partialRectangle;whiteSpace=wrap;html=1;bottom=1;right=1;left=1;top=0;fillColor=none;routingCenterX=-0.5;rotation=-90;strokeWidth=2;" parent="1" vertex="1">
          <mxGeometry x="34" y="492" width="87" height="11" as="geometry" />
        </mxCell>
        <mxCell id="Uu9AmT3nj6WKYAnCRlqI-97" value="" style="edgeStyle=orthogonalEdgeStyle;rounded=0;orthogonalLoop=1;jettySize=auto;html=1;" parent="1" source="Uu9AmT3nj6WKYAnCRlqI-95" target="Uu9AmT3nj6WKYAnCRlqI-96" edge="1">
          <mxGeometry relative="1" as="geometry" />
        </mxCell>
        <mxCell id="Uu9AmT3nj6WKYAnCRlqI-95" value="&lt;font style=&quot;font-size: 36px&quot;&gt;？&lt;/font&gt;" style="text;html=1;resizable=0;points=[];autosize=1;align=left;verticalAlign=top;spacingTop=-4;" parent="1" vertex="1">
          <mxGeometry x="10" y="480" width="50" height="20" as="geometry" />
        </mxCell>
        <mxCell id="Uu9AmT3nj6WKYAnCRlqI-96" value="&lt;font style=&quot;font-size: 12px&quot;&gt;and you&#39;re going to,like,tell me what matrix will do it&amp;nbsp;&lt;/font&gt;" style="text;html=1;resizable=0;points=[];autosize=1;align=left;verticalAlign=top;spacingTop=-4;" parent="1" vertex="1">
          <mxGeometry x="-110.5" y="550" width="290" height="20" as="geometry" />
        </mxCell>
        <mxCell id="Uu9AmT3nj6WKYAnCRlqI-101" value="" style="shape=partialRectangle;whiteSpace=wrap;html=1;bottom=1;right=1;left=1;top=0;fillColor=none;routingCenterX=-0.5;rotation=90;strokeWidth=2;" parent="1" vertex="1">
          <mxGeometry x="88" y="633" width="86" height="10" as="geometry" />
        </mxCell>
        <mxCell id="Uu9AmT3nj6WKYAnCRlqI-102" value="" style="shape=partialRectangle;whiteSpace=wrap;html=1;bottom=1;right=1;left=1;top=0;fillColor=none;routingCenterX=-0.5;rotation=-90;strokeWidth=2;" parent="1" vertex="1">
          <mxGeometry x="192" y="631" width="87" height="11" as="geometry" />
        </mxCell>
        <mxCell id="Uu9AmT3nj6WKYAnCRlqI-103" value="&lt;font style=&quot;font-size: 18px&quot;&gt;&lt;b&gt;1&lt;/b&gt;&lt;/font&gt;" style="text;html=1;resizable=0;points=[];autosize=1;align=left;verticalAlign=top;spacingTop=-4;" parent="1" vertex="1">
          <mxGeometry x="143" y="597" width="30" height="20" as="geometry" />
        </mxCell>
        <mxCell id="Uu9AmT3nj6WKYAnCRlqI-104" value="&lt;b&gt;&lt;font style=&quot;font-size: 18px&quot;&gt;2&lt;/font&gt;&lt;/b&gt;" style="text;html=1;resizable=0;points=[];autosize=1;align=left;verticalAlign=top;spacingTop=-4;" parent="1" vertex="1">
          <mxGeometry x="174" y="597" width="30" height="20" as="geometry" />
        </mxCell>
        <mxCell id="Uu9AmT3nj6WKYAnCRlqI-105" value="&lt;b&gt;&lt;font style=&quot;font-size: 18px&quot;&gt;1&lt;/font&gt;&lt;/b&gt;" style="text;html=1;resizable=0;points=[];autosize=1;align=left;verticalAlign=top;spacingTop=-4;" parent="1" vertex="1">
          <mxGeometry x="206.5" y="597" width="30" height="20" as="geometry" />
        </mxCell>
        <mxCell id="Uu9AmT3nj6WKYAnCRlqI-106" value="&lt;font style=&quot;font-size: 18px&quot;&gt;&lt;b&gt;3&lt;/b&gt;&lt;/font&gt;" style="text;html=1;resizable=0;points=[];autosize=1;align=left;verticalAlign=top;spacingTop=-4;" parent="1" vertex="1">
          <mxGeometry x="143" y="628" width="30" height="20" as="geometry" />
        </mxCell>
        <mxCell id="Uu9AmT3nj6WKYAnCRlqI-107" value="&lt;b&gt;&lt;font style=&quot;font-size: 18px&quot;&gt;8&lt;/font&gt;&lt;/b&gt;" style="text;html=1;resizable=0;points=[];autosize=1;align=left;verticalAlign=top;spacingTop=-4;" parent="1" vertex="1">
          <mxGeometry x="174" y="628" width="30" height="20" as="geometry" />
        </mxCell>
        <mxCell id="Uu9AmT3nj6WKYAnCRlqI-108" value="&lt;b&gt;&lt;font style=&quot;font-size: 18px&quot;&gt;1&lt;/font&gt;&lt;/b&gt;" style="text;html=1;resizable=0;points=[];autosize=1;align=left;verticalAlign=top;spacingTop=-4;" parent="1" vertex="1">
          <mxGeometry x="206.5" y="628" width="30" height="20" as="geometry" />
        </mxCell>
        <mxCell id="Uu9AmT3nj6WKYAnCRlqI-109" value="&lt;font style=&quot;font-size: 18px&quot;&gt;&lt;b&gt;0&lt;/b&gt;&lt;/font&gt;" style="text;html=1;resizable=0;points=[];autosize=1;align=left;verticalAlign=top;spacingTop=-4;" parent="1" vertex="1">
          <mxGeometry x="144" y="655" width="30" height="20" as="geometry" />
        </mxCell>
        <mxCell id="Uu9AmT3nj6WKYAnCRlqI-110" value="&lt;b&gt;&lt;font style=&quot;font-size: 18px&quot;&gt;4&lt;/font&gt;&lt;/b&gt;" style="text;html=1;resizable=0;points=[];autosize=1;align=left;verticalAlign=top;spacingTop=-4;" parent="1" vertex="1">
          <mxGeometry x="175" y="655" width="30" height="20" as="geometry" />
        </mxCell>
        <mxCell id="Uu9AmT3nj6WKYAnCRlqI-111" value="&lt;b&gt;&lt;font style=&quot;font-size: 18px&quot;&gt;1&lt;/font&gt;&lt;/b&gt;" style="text;html=1;resizable=0;points=[];autosize=1;align=left;verticalAlign=top;spacingTop=-4;" parent="1" vertex="1">
          <mxGeometry x="207.5" y="655" width="30" height="20" as="geometry" />
        </mxCell>
        <mxCell id="Uu9AmT3nj6WKYAnCRlqI-112" value="" style="shape=partialRectangle;whiteSpace=wrap;html=1;bottom=1;right=1;left=1;top=0;fillColor=none;routingCenterX=-0.5;rotation=90;strokeWidth=2;" parent="1" vertex="1">
          <mxGeometry x="-44" y="635" width="86" height="10" as="geometry" />
        </mxCell>
        <mxCell id="Uu9AmT3nj6WKYAnCRlqI-113" value="" style="shape=partialRectangle;whiteSpace=wrap;html=1;bottom=1;right=1;left=1;top=0;fillColor=none;routingCenterX=-0.5;rotation=-90;strokeWidth=2;" parent="1" vertex="1">
          <mxGeometry x="60" y="633" width="87" height="11" as="geometry" />
        </mxCell>
        <mxCell id="Uu9AmT3nj6WKYAnCRlqI-136" style="edgeStyle=orthogonalEdgeStyle;rounded=0;orthogonalLoop=1;jettySize=auto;html=1;strokeWidth=1;" parent="1" source="Uu9AmT3nj6WKYAnCRlqI-114" target="Uu9AmT3nj6WKYAnCRlqI-135" edge="1">
          <mxGeometry relative="1" as="geometry">
            <Array as="points">
              <mxPoint x="61" y="720" />
              <mxPoint x="536" y="720" />
            </Array>
          </mxGeometry>
        </mxCell>
        <mxCell id="Uu9AmT3nj6WKYAnCRlqI-138" style="edgeStyle=orthogonalEdgeStyle;rounded=0;orthogonalLoop=1;jettySize=auto;html=1;strokeWidth=1;" parent="1" source="Uu9AmT3nj6WKYAnCRlqI-114" target="Uu9AmT3nj6WKYAnCRlqI-144" edge="1">
          <mxGeometry relative="1" as="geometry">
            <mxPoint x="61" y="790" as="targetPoint" />
          </mxGeometry>
        </mxCell>
        <mxCell id="Uu9AmT3nj6WKYAnCRlqI-178" value="单位矩阵" style="text;html=1;resizable=0;points=[];align=center;verticalAlign=middle;labelBackgroundColor=#ffffff;fontColor=#FF0000;" parent="Uu9AmT3nj6WKYAnCRlqI-138" vertex="1" connectable="0">
          <mxGeometry x="-0.3423" y="-1" relative="1" as="geometry">
            <mxPoint x="-1.5" y="86" as="offset" />
          </mxGeometry>
        </mxCell>
        <mxCell id="Uu9AmT3nj6WKYAnCRlqI-114" value="&lt;font style=&quot;font-size: 36px&quot;&gt;？&lt;/font&gt;" style="text;html=1;resizable=0;points=[];autosize=1;align=left;verticalAlign=top;spacingTop=-4;" parent="1" vertex="1">
          <mxGeometry x="36" y="621" width="50" height="20" as="geometry" />
        </mxCell>
        <mxCell id="Uu9AmT3nj6WKYAnCRlqI-119" style="edgeStyle=orthogonalEdgeStyle;rounded=0;orthogonalLoop=1;jettySize=auto;html=1;strokeWidth=1;exitX=0.488;exitY=1.067;exitDx=0;exitDy=0;exitPerimeter=0;" parent="1" source="Uu9AmT3nj6WKYAnCRlqI-91" target="Uu9AmT3nj6WKYAnCRlqI-123" edge="1">
          <mxGeometry relative="1" as="geometry">
            <mxPoint x="330" y="600" as="targetPoint" />
            <Array as="points">
              <mxPoint x="555" y="540" />
              <mxPoint x="332" y="540" />
            </Array>
          </mxGeometry>
        </mxCell>
        <mxCell id="Uu9AmT3nj6WKYAnCRlqI-120" value="" style="shape=partialRectangle;whiteSpace=wrap;html=1;bottom=1;right=1;left=1;top=0;fillColor=none;routingCenterX=-0.5;rotation=90;strokeWidth=2;" parent="1" vertex="1">
          <mxGeometry x="231" y="631" width="86" height="10" as="geometry" />
        </mxCell>
        <mxCell id="Uu9AmT3nj6WKYAnCRlqI-121" value="" style="shape=partialRectangle;whiteSpace=wrap;html=1;bottom=1;right=1;left=1;top=0;fillColor=none;routingCenterX=-0.5;rotation=-90;strokeWidth=2;" parent="1" vertex="1">
          <mxGeometry x="335" y="629" width="87" height="11" as="geometry" />
        </mxCell>
        <mxCell id="Uu9AmT3nj6WKYAnCRlqI-122" value="&lt;font style=&quot;font-size: 18px&quot;&gt;&lt;b&gt;1&lt;/b&gt;&lt;/font&gt;" style="text;html=1;resizable=0;points=[];autosize=1;align=left;verticalAlign=top;spacingTop=-4;" parent="1" vertex="1">
          <mxGeometry x="286" y="595" width="30" height="20" as="geometry" />
        </mxCell>
        <mxCell id="Uu9AmT3nj6WKYAnCRlqI-123" value="&lt;b&gt;&lt;font style=&quot;font-size: 18px&quot;&gt;2&lt;/font&gt;&lt;/b&gt;" style="text;html=1;resizable=0;points=[];autosize=1;align=left;verticalAlign=top;spacingTop=-4;" parent="1" vertex="1">
          <mxGeometry x="317" y="595" width="30" height="20" as="geometry" />
        </mxCell>
        <mxCell id="Uu9AmT3nj6WKYAnCRlqI-124" value="&lt;b&gt;&lt;font style=&quot;font-size: 18px&quot;&gt;1&lt;/font&gt;&lt;/b&gt;" style="text;html=1;resizable=0;points=[];autosize=1;align=left;verticalAlign=top;spacingTop=-4;" parent="1" vertex="1">
          <mxGeometry x="349.5" y="595" width="30" height="20" as="geometry" />
        </mxCell>
        <mxCell id="Uu9AmT3nj6WKYAnCRlqI-128" value="&lt;font style=&quot;font-size: 18px&quot;&gt;&lt;b&gt;0&lt;/b&gt;&lt;/font&gt;" style="text;html=1;resizable=0;points=[];autosize=1;align=left;verticalAlign=top;spacingTop=-4;" parent="1" vertex="1">
          <mxGeometry x="287" y="653" width="30" height="20" as="geometry" />
        </mxCell>
        <mxCell id="Uu9AmT3nj6WKYAnCRlqI-129" value="&lt;b&gt;&lt;font style=&quot;font-size: 18px&quot;&gt;4&lt;/font&gt;&lt;/b&gt;" style="text;html=1;resizable=0;points=[];autosize=1;align=left;verticalAlign=top;spacingTop=-4;" parent="1" vertex="1">
          <mxGeometry x="318" y="653" width="30" height="20" as="geometry" />
        </mxCell>
        <mxCell id="Uu9AmT3nj6WKYAnCRlqI-130" value="&lt;b&gt;&lt;font style=&quot;font-size: 18px&quot;&gt;1&lt;/font&gt;&lt;/b&gt;" style="text;html=1;resizable=0;points=[];autosize=1;align=left;verticalAlign=top;spacingTop=-4;" parent="1" vertex="1">
          <mxGeometry x="350.5" y="653" width="30" height="20" as="geometry" />
        </mxCell>
        <mxCell id="Uu9AmT3nj6WKYAnCRlqI-131" value="" style="group" parent="1" vertex="1" connectable="0">
          <mxGeometry x="286" y="626" width="89.5" height="20" as="geometry" />
        </mxCell>
        <mxCell id="Uu9AmT3nj6WKYAnCRlqI-125" value="&lt;font style=&quot;font-size: 18px&quot; color=&quot;#000099&quot;&gt;&lt;b&gt;0&lt;/b&gt;&lt;/font&gt;" style="text;html=1;resizable=0;points=[];autosize=1;align=left;verticalAlign=top;spacingTop=-4;" parent="Uu9AmT3nj6WKYAnCRlqI-131" vertex="1">
          <mxGeometry width="30" height="20" as="geometry" />
        </mxCell>
        <mxCell id="Uu9AmT3nj6WKYAnCRlqI-126" value="&lt;b&gt;&lt;font style=&quot;font-size: 18px&quot; color=&quot;#000099&quot;&gt;2&lt;/font&gt;&lt;/b&gt;" style="text;html=1;resizable=0;points=[];autosize=1;align=left;verticalAlign=top;spacingTop=-4;" parent="Uu9AmT3nj6WKYAnCRlqI-131" vertex="1">
          <mxGeometry x="31" width="30" height="20" as="geometry" />
        </mxCell>
        <mxCell id="Uu9AmT3nj6WKYAnCRlqI-127" value="&lt;b&gt;&lt;font style=&quot;font-size: 18px&quot; color=&quot;#000099&quot;&gt;-2&lt;/font&gt;&lt;/b&gt;" style="text;html=1;resizable=0;points=[];autosize=1;align=left;verticalAlign=top;spacingTop=-4;" parent="Uu9AmT3nj6WKYAnCRlqI-131" vertex="1">
          <mxGeometry x="59.5" width="30" height="20" as="geometry" />
        </mxCell>
        <mxCell id="Uu9AmT3nj6WKYAnCRlqI-132" style="edgeStyle=orthogonalEdgeStyle;rounded=0;orthogonalLoop=1;jettySize=auto;html=1;strokeWidth=1;" parent="1" source="Uu9AmT3nj6WKYAnCRlqI-127" target="Uu9AmT3nj6WKYAnCRlqI-133" edge="1">
          <mxGeometry relative="1" as="geometry">
            <mxPoint x="400" y="610" as="targetPoint" />
          </mxGeometry>
        </mxCell>
        <mxCell id="Uu9AmT3nj6WKYAnCRlqI-134" style="edgeStyle=orthogonalEdgeStyle;rounded=0;orthogonalLoop=1;jettySize=auto;html=1;strokeWidth=1;" parent="1" source="Uu9AmT3nj6WKYAnCRlqI-133" target="Uu9AmT3nj6WKYAnCRlqI-135" edge="1">
          <mxGeometry relative="1" as="geometry">
            <mxPoint x="534" y="670" as="targetPoint" />
          </mxGeometry>
        </mxCell>
        <mxCell id="Uu9AmT3nj6WKYAnCRlqI-133" value="So it puts a 0 there ,a 2 there and a minus 2." style="text;html=1;resizable=0;points=[];autosize=1;align=left;verticalAlign=top;spacingTop=-4;" parent="1" vertex="1">
          <mxGeometry x="409" y="574" width="250" height="20" as="geometry" />
        </mxCell>
        <mxCell id="Uu9AmT3nj6WKYAnCRlqI-135" value="Good，What matrix will do it？" style="text;html=1;resizable=0;points=[];autosize=1;align=left;verticalAlign=top;spacingTop=-4;" parent="1" vertex="1">
          <mxGeometry x="444" y="674" width="180" height="20" as="geometry" />
        </mxCell>
        <mxCell id="Uu9AmT3nj6WKYAnCRlqI-137" value="it&#39;s these.It should be a pretty simple martix&lt;br&gt;because we’re doing a very simple step，&lt;br&gt;We‘re just doing this step that changes row two So actually,row one is not changing&lt;br&gt;" style="text;html=1;resizable=0;points=[];autosize=1;align=left;verticalAlign=top;spacingTop=-4;" parent="1" vertex="1">
          <mxGeometry x="-64" y="701" width="460" height="40" as="geometry" />
        </mxCell>
        <mxCell id="Uu9AmT3nj6WKYAnCRlqI-139" value="So tell me how the matrix should degin.(谁告诉我，矩阵的第一行是什么？）" style="text;html=1;resizable=0;points=[];autosize=1;align=left;verticalAlign=top;spacingTop=-4;" parent="1" vertex="1">
          <mxGeometry x="-75" y="751" width="420" height="20" as="geometry" />
        </mxCell>
        <mxCell id="Uu9AmT3nj6WKYAnCRlqI-141" value="" style="shape=partialRectangle;whiteSpace=wrap;html=1;bottom=1;right=1;left=1;top=0;fillColor=none;routingCenterX=-0.5;rotation=90;strokeWidth=2;strokeColor=#FF0000;" parent="1" vertex="1">
          <mxGeometry x="-40" y="834" width="86" height="10" as="geometry" />
        </mxCell>
        <mxCell id="Uu9AmT3nj6WKYAnCRlqI-142" value="" style="shape=partialRectangle;whiteSpace=wrap;html=1;bottom=1;right=1;left=1;top=0;fillColor=none;routingCenterX=-0.5;rotation=-90;strokeWidth=2;strokeColor=#FF0000;" parent="1" vertex="1">
          <mxGeometry x="64" y="832" width="87" height="11" as="geometry" />
        </mxCell>
        <mxCell id="Uu9AmT3nj6WKYAnCRlqI-349" style="edgeStyle=orthogonalEdgeStyle;rounded=0;orthogonalLoop=1;jettySize=auto;html=1;strokeWidth=1;fontColor=#FF0000;" parent="1" source="Uu9AmT3nj6WKYAnCRlqI-143" edge="1">
          <mxGeometry relative="1" as="geometry">
            <mxPoint x="-70" y="808" as="targetPoint" />
          </mxGeometry>
        </mxCell>
        <mxCell id="Uu9AmT3nj6WKYAnCRlqI-143" value="&lt;font style=&quot;font-size: 18px&quot; color=&quot;#ff3333&quot;&gt;&lt;b&gt;1&lt;/b&gt;&lt;/font&gt;" style="text;html=1;resizable=0;points=[];autosize=1;align=left;verticalAlign=top;spacingTop=-4;" parent="1" vertex="1">
          <mxGeometry x="15" y="798" width="30" height="20" as="geometry" />
        </mxCell>
        <mxCell id="Uu9AmT3nj6WKYAnCRlqI-144" value="&lt;b&gt;&lt;font style=&quot;font-size: 18px&quot; color=&quot;#ff3333&quot;&gt;0&lt;/font&gt;&lt;/b&gt;" style="text;html=1;resizable=0;points=[];autosize=1;align=left;verticalAlign=top;spacingTop=-4;" parent="1" vertex="1">
          <mxGeometry x="46" y="798" width="30" height="20" as="geometry" />
        </mxCell>
        <mxCell id="Uu9AmT3nj6WKYAnCRlqI-145" value="&lt;b&gt;&lt;font style=&quot;font-size: 18px&quot; color=&quot;#ff3333&quot;&gt;0&lt;/font&gt;&lt;/b&gt;" style="text;html=1;resizable=0;points=[];autosize=1;align=left;verticalAlign=top;spacingTop=-4;" parent="1" vertex="1">
          <mxGeometry x="78.5" y="798" width="30" height="20" as="geometry" />
        </mxCell>
        <mxCell id="Uu9AmT3nj6WKYAnCRlqI-146" value="&lt;font style=&quot;font-size: 18px&quot; color=&quot;#ff3333&quot;&gt;&lt;b&gt;0&lt;/b&gt;&lt;/font&gt;" style="text;html=1;resizable=0;points=[];autosize=1;align=left;verticalAlign=top;spacingTop=-4;" parent="1" vertex="1">
          <mxGeometry x="16" y="856" width="30" height="20" as="geometry" />
        </mxCell>
        <mxCell id="Uu9AmT3nj6WKYAnCRlqI-147" value="&lt;b&gt;&lt;font style=&quot;font-size: 18px&quot; color=&quot;#ff3333&quot;&gt;0&lt;/font&gt;&lt;/b&gt;" style="text;html=1;resizable=0;points=[];autosize=1;align=left;verticalAlign=top;spacingTop=-4;" parent="1" vertex="1">
          <mxGeometry x="47" y="856" width="30" height="20" as="geometry" />
        </mxCell>
        <mxCell id="Uu9AmT3nj6WKYAnCRlqI-148" value="&lt;b&gt;&lt;font style=&quot;font-size: 18px&quot; color=&quot;#ff3333&quot;&gt;1&lt;/font&gt;&lt;/b&gt;" style="text;html=1;resizable=0;points=[];autosize=1;align=left;verticalAlign=top;spacingTop=-4;" parent="1" vertex="1">
          <mxGeometry x="79.5" y="856" width="30" height="20" as="geometry" />
        </mxCell>
        <mxCell id="Uu9AmT3nj6WKYAnCRlqI-149" value="" style="group" parent="1" vertex="1" connectable="0">
          <mxGeometry x="15" y="829" width="99.5" height="20" as="geometry" />
        </mxCell>
        <mxCell id="Uu9AmT3nj6WKYAnCRlqI-150" value="&lt;font style=&quot;font-size: 18px&quot; color=&quot;#ff3333&quot;&gt;&lt;b&gt;0&lt;/b&gt;&lt;/font&gt;" style="text;html=1;resizable=0;points=[];autosize=1;align=left;verticalAlign=top;spacingTop=-4;" parent="Uu9AmT3nj6WKYAnCRlqI-149" vertex="1">
          <mxGeometry width="30" height="20" as="geometry" />
        </mxCell>
        <mxCell id="Uu9AmT3nj6WKYAnCRlqI-151" value="&lt;b&gt;&lt;font style=&quot;font-size: 18px&quot; color=&quot;#ff3333&quot;&gt;1&lt;/font&gt;&lt;/b&gt;" style="text;html=1;resizable=0;points=[];autosize=1;align=left;verticalAlign=top;spacingTop=-4;" parent="Uu9AmT3nj6WKYAnCRlqI-149" vertex="1">
          <mxGeometry x="31" width="30" height="20" as="geometry" />
        </mxCell>
        <mxCell id="Uu9AmT3nj6WKYAnCRlqI-152" value="&lt;font color=&quot;#ff3333&quot;&gt;&lt;span style=&quot;font-size: 18px&quot;&gt;&lt;b&gt;&amp;nbsp;0&lt;/b&gt;&lt;/span&gt;&lt;/font&gt;&lt;br&gt;" style="text;html=1;resizable=0;points=[];autosize=1;align=left;verticalAlign=top;spacingTop=-4;" parent="Uu9AmT3nj6WKYAnCRlqI-149" vertex="1">
          <mxGeometry x="59.5" width="30" height="20" as="geometry" />
        </mxCell>
        <mxCell id="Uu9AmT3nj6WKYAnCRlqI-153" value="" style="shape=partialRectangle;whiteSpace=wrap;html=1;bottom=1;right=1;left=1;top=0;fillColor=none;routingCenterX=-0.5;rotation=90;strokeWidth=2;" parent="1" vertex="1">
          <mxGeometry x="86" y="833" width="86" height="10" as="geometry" />
        </mxCell>
        <mxCell id="Uu9AmT3nj6WKYAnCRlqI-154" value="" style="shape=partialRectangle;whiteSpace=wrap;html=1;bottom=1;right=1;left=1;top=0;fillColor=none;routingCenterX=-0.5;rotation=-90;strokeWidth=2;" parent="1" vertex="1">
          <mxGeometry x="190" y="831" width="87" height="11" as="geometry" />
        </mxCell>
        <mxCell id="Uu9AmT3nj6WKYAnCRlqI-155" value="&lt;font style=&quot;font-size: 18px&quot;&gt;&lt;b&gt;1&lt;/b&gt;&lt;/font&gt;" style="text;html=1;resizable=0;points=[];autosize=1;align=left;verticalAlign=top;spacingTop=-4;" parent="1" vertex="1">
          <mxGeometry x="141" y="797" width="30" height="20" as="geometry" />
        </mxCell>
        <mxCell id="Uu9AmT3nj6WKYAnCRlqI-156" value="&lt;b&gt;&lt;font style=&quot;font-size: 18px&quot;&gt;2&lt;/font&gt;&lt;/b&gt;" style="text;html=1;resizable=0;points=[];autosize=1;align=left;verticalAlign=top;spacingTop=-4;" parent="1" vertex="1">
          <mxGeometry x="172" y="797" width="30" height="20" as="geometry" />
        </mxCell>
        <mxCell id="Uu9AmT3nj6WKYAnCRlqI-157" value="&lt;b&gt;&lt;font style=&quot;font-size: 18px&quot;&gt;1&lt;/font&gt;&lt;/b&gt;" style="text;html=1;resizable=0;points=[];autosize=1;align=left;verticalAlign=top;spacingTop=-4;" parent="1" vertex="1">
          <mxGeometry x="204.5" y="797" width="30" height="20" as="geometry" />
        </mxCell>
        <mxCell id="Uu9AmT3nj6WKYAnCRlqI-158" value="&lt;font style=&quot;font-size: 18px&quot;&gt;&lt;b&gt;3&lt;/b&gt;&lt;/font&gt;" style="text;html=1;resizable=0;points=[];autosize=1;align=left;verticalAlign=top;spacingTop=-4;" parent="1" vertex="1">
          <mxGeometry x="141" y="828" width="30" height="20" as="geometry" />
        </mxCell>
        <mxCell id="Uu9AmT3nj6WKYAnCRlqI-159" value="&lt;b&gt;&lt;font style=&quot;font-size: 18px&quot;&gt;8&lt;/font&gt;&lt;/b&gt;" style="text;html=1;resizable=0;points=[];autosize=1;align=left;verticalAlign=top;spacingTop=-4;" parent="1" vertex="1">
          <mxGeometry x="172" y="828" width="30" height="20" as="geometry" />
        </mxCell>
        <mxCell id="Uu9AmT3nj6WKYAnCRlqI-160" value="&lt;b&gt;&lt;font style=&quot;font-size: 18px&quot;&gt;1&lt;/font&gt;&lt;/b&gt;" style="text;html=1;resizable=0;points=[];autosize=1;align=left;verticalAlign=top;spacingTop=-4;" parent="1" vertex="1">
          <mxGeometry x="204.5" y="828" width="30" height="20" as="geometry" />
        </mxCell>
        <mxCell id="Uu9AmT3nj6WKYAnCRlqI-161" value="&lt;font style=&quot;font-size: 18px&quot;&gt;&lt;b&gt;0&lt;/b&gt;&lt;/font&gt;" style="text;html=1;resizable=0;points=[];autosize=1;align=left;verticalAlign=top;spacingTop=-4;" parent="1" vertex="1">
          <mxGeometry x="142" y="855" width="30" height="20" as="geometry" />
        </mxCell>
        <mxCell id="Uu9AmT3nj6WKYAnCRlqI-162" value="&lt;b&gt;&lt;font style=&quot;font-size: 18px&quot;&gt;4&lt;/font&gt;&lt;/b&gt;" style="text;html=1;resizable=0;points=[];autosize=1;align=left;verticalAlign=top;spacingTop=-4;" parent="1" vertex="1">
          <mxGeometry x="173" y="855" width="30" height="20" as="geometry" />
        </mxCell>
        <mxCell id="Uu9AmT3nj6WKYAnCRlqI-163" value="&lt;b&gt;&lt;font style=&quot;font-size: 18px&quot;&gt;1&lt;/font&gt;&lt;/b&gt;" style="text;html=1;resizable=0;points=[];autosize=1;align=left;verticalAlign=top;spacingTop=-4;" parent="1" vertex="1">
          <mxGeometry x="205.5" y="855" width="30" height="20" as="geometry" />
        </mxCell>
        <mxCell id="Uu9AmT3nj6WKYAnCRlqI-165" value="" style="shape=partialRectangle;whiteSpace=wrap;html=1;bottom=1;right=1;left=1;top=0;fillColor=none;routingCenterX=-0.5;rotation=90;strokeWidth=2;" parent="1" vertex="1">
          <mxGeometry x="229" y="831" width="86" height="10" as="geometry" />
        </mxCell>
        <mxCell id="Uu9AmT3nj6WKYAnCRlqI-166" value="" style="shape=partialRectangle;whiteSpace=wrap;html=1;bottom=1;right=1;left=1;top=0;fillColor=none;routingCenterX=-0.5;rotation=-90;strokeWidth=2;" parent="1" vertex="1">
          <mxGeometry x="333" y="829" width="87" height="11" as="geometry" />
        </mxCell>
        <mxCell id="Uu9AmT3nj6WKYAnCRlqI-167" value="&lt;font style=&quot;font-size: 18px&quot;&gt;&lt;b&gt;1&lt;/b&gt;&lt;/font&gt;" style="text;html=1;resizable=0;points=[];autosize=1;align=left;verticalAlign=top;spacingTop=-4;" parent="1" vertex="1">
          <mxGeometry x="284" y="795" width="30" height="20" as="geometry" />
        </mxCell>
        <mxCell id="Uu9AmT3nj6WKYAnCRlqI-168" value="&lt;b&gt;&lt;font style=&quot;font-size: 18px&quot;&gt;2&lt;/font&gt;&lt;/b&gt;" style="text;html=1;resizable=0;points=[];autosize=1;align=left;verticalAlign=top;spacingTop=-4;" parent="1" vertex="1">
          <mxGeometry x="315" y="795" width="30" height="20" as="geometry" />
        </mxCell>
        <mxCell id="Uu9AmT3nj6WKYAnCRlqI-169" value="&lt;b&gt;&lt;font style=&quot;font-size: 18px&quot;&gt;1&lt;/font&gt;&lt;/b&gt;" style="text;html=1;resizable=0;points=[];autosize=1;align=left;verticalAlign=top;spacingTop=-4;" parent="1" vertex="1">
          <mxGeometry x="347.5" y="795" width="30" height="20" as="geometry" />
        </mxCell>
        <mxCell id="Uu9AmT3nj6WKYAnCRlqI-170" value="&lt;font style=&quot;font-size: 18px&quot;&gt;&lt;b&gt;0&lt;/b&gt;&lt;/font&gt;" style="text;html=1;resizable=0;points=[];autosize=1;align=left;verticalAlign=top;spacingTop=-4;" parent="1" vertex="1">
          <mxGeometry x="285" y="853" width="30" height="20" as="geometry" />
        </mxCell>
        <mxCell id="Uu9AmT3nj6WKYAnCRlqI-171" value="&lt;b&gt;&lt;font style=&quot;font-size: 18px&quot;&gt;4&lt;/font&gt;&lt;/b&gt;" style="text;html=1;resizable=0;points=[];autosize=1;align=left;verticalAlign=top;spacingTop=-4;" parent="1" vertex="1">
          <mxGeometry x="316" y="853" width="30" height="20" as="geometry" />
        </mxCell>
        <mxCell id="Uu9AmT3nj6WKYAnCRlqI-172" value="&lt;b&gt;&lt;font style=&quot;font-size: 18px&quot;&gt;1&lt;/font&gt;&lt;/b&gt;" style="text;html=1;resizable=0;points=[];autosize=1;align=left;verticalAlign=top;spacingTop=-4;" parent="1" vertex="1">
          <mxGeometry x="348.5" y="853" width="30" height="20" as="geometry" />
        </mxCell>
        <mxCell id="Uu9AmT3nj6WKYAnCRlqI-173" value="" style="group" parent="1" vertex="1" connectable="0">
          <mxGeometry x="284" y="826" width="89.5" height="20" as="geometry" />
        </mxCell>
        <mxCell id="Uu9AmT3nj6WKYAnCRlqI-174" value="&lt;font style=&quot;font-size: 18px&quot; color=&quot;#000099&quot;&gt;&lt;b&gt;0&lt;/b&gt;&lt;/font&gt;" style="text;html=1;resizable=0;points=[];autosize=1;align=left;verticalAlign=top;spacingTop=-4;" parent="Uu9AmT3nj6WKYAnCRlqI-173" vertex="1">
          <mxGeometry width="30" height="20" as="geometry" />
        </mxCell>
        <mxCell id="Uu9AmT3nj6WKYAnCRlqI-175" value="&lt;b&gt;&lt;font style=&quot;font-size: 18px&quot; color=&quot;#000099&quot;&gt;2&lt;/font&gt;&lt;/b&gt;" style="text;html=1;resizable=0;points=[];autosize=1;align=left;verticalAlign=top;spacingTop=-4;" parent="Uu9AmT3nj6WKYAnCRlqI-173" vertex="1">
          <mxGeometry x="31" width="30" height="20" as="geometry" />
        </mxCell>
        <mxCell id="Uu9AmT3nj6WKYAnCRlqI-176" value="&lt;b&gt;&lt;font style=&quot;font-size: 18px&quot; color=&quot;#000099&quot;&gt;-2&lt;/font&gt;&lt;/b&gt;" style="text;html=1;resizable=0;points=[];autosize=1;align=left;verticalAlign=top;spacingTop=-4;" parent="Uu9AmT3nj6WKYAnCRlqI-173" vertex="1">
          <mxGeometry x="59.5" width="30" height="20" as="geometry" />
        </mxCell>
        <mxCell id="Uu9AmT3nj6WKYAnCRlqI-179" value="毫无意义" style="text;html=1;resizable=0;points=[];autosize=1;align=left;verticalAlign=top;spacingTop=-4;fontColor=#FF0000;" parent="1" vertex="1">
          <mxGeometry x="30" y="878" width="60" height="20" as="geometry" />
        </mxCell>
        <mxCell id="Uu9AmT3nj6WKYAnCRlqI-182" value="" style="shape=partialRectangle;whiteSpace=wrap;html=1;bottom=1;right=1;left=1;top=0;fillColor=none;routingCenterX=-0.5;rotation=90;strokeWidth=2;strokeColor=#FF0000;" parent="1" vertex="1">
          <mxGeometry x="-41" y="982" width="86" height="10" as="geometry" />
        </mxCell>
        <mxCell id="Uu9AmT3nj6WKYAnCRlqI-183" value="" style="shape=partialRectangle;whiteSpace=wrap;html=1;bottom=1;right=1;left=1;top=0;fillColor=none;routingCenterX=-0.5;rotation=-90;strokeWidth=2;strokeColor=#FF0000;" parent="1" vertex="1">
          <mxGeometry x="63" y="980" width="87" height="11" as="geometry" />
        </mxCell>
        <mxCell id="Uu9AmT3nj6WKYAnCRlqI-184" value="&lt;font style=&quot;font-size: 18px&quot; color=&quot;#ff3333&quot;&gt;&lt;b&gt;1&lt;/b&gt;&lt;/font&gt;" style="text;html=1;resizable=0;points=[];autosize=1;align=left;verticalAlign=top;spacingTop=-4;" parent="1" vertex="1">
          <mxGeometry x="14" y="946" width="30" height="20" as="geometry" />
        </mxCell>
        <mxCell id="Uu9AmT3nj6WKYAnCRlqI-185" value="&lt;b&gt;&lt;font style=&quot;font-size: 18px&quot; color=&quot;#ff3333&quot;&gt;0&lt;/font&gt;&lt;/b&gt;" style="text;html=1;resizable=0;points=[];autosize=1;align=left;verticalAlign=top;spacingTop=-4;" parent="1" vertex="1">
          <mxGeometry x="45" y="946" width="30" height="20" as="geometry" />
        </mxCell>
        <mxCell id="Uu9AmT3nj6WKYAnCRlqI-186" value="&lt;b&gt;&lt;font style=&quot;font-size: 18px&quot; color=&quot;#ff3333&quot;&gt;0&lt;/font&gt;&lt;/b&gt;" style="text;html=1;resizable=0;points=[];autosize=1;align=left;verticalAlign=top;spacingTop=-4;" parent="1" vertex="1">
          <mxGeometry x="77.5" y="946" width="30" height="20" as="geometry" />
        </mxCell>
        <mxCell id="Uu9AmT3nj6WKYAnCRlqI-187" value="&lt;font style=&quot;font-size: 18px&quot; color=&quot;#ff3333&quot;&gt;&lt;b&gt;0&lt;/b&gt;&lt;/font&gt;" style="text;html=1;resizable=0;points=[];autosize=1;align=left;verticalAlign=top;spacingTop=-4;" parent="1" vertex="1">
          <mxGeometry x="15" y="1004" width="30" height="20" as="geometry" />
        </mxCell>
        <mxCell id="Uu9AmT3nj6WKYAnCRlqI-189" value="&lt;b&gt;&lt;font style=&quot;font-size: 18px&quot; color=&quot;#ff3333&quot;&gt;1&lt;/font&gt;&lt;/b&gt;" style="text;html=1;resizable=0;points=[];autosize=1;align=left;verticalAlign=top;spacingTop=-4;" parent="1" vertex="1">
          <mxGeometry x="78.5" y="1004" width="30" height="20" as="geometry" />
        </mxCell>
        <mxCell id="Uu9AmT3nj6WKYAnCRlqI-190" value="" style="group" parent="1" vertex="1" connectable="0">
          <mxGeometry x="14" y="977" width="99.5" height="20" as="geometry" />
        </mxCell>
        <mxCell id="Uu9AmT3nj6WKYAnCRlqI-191" value="&lt;font style=&quot;font-size: 18px&quot; color=&quot;#ff3333&quot;&gt;&lt;b&gt;-3&lt;/b&gt;&lt;/font&gt;" style="text;html=1;resizable=0;points=[];autosize=1;align=left;verticalAlign=top;spacingTop=-4;" parent="Uu9AmT3nj6WKYAnCRlqI-190" vertex="1">
          <mxGeometry width="30" height="20" as="geometry" />
        </mxCell>
        <mxCell id="Uu9AmT3nj6WKYAnCRlqI-192" value="&lt;b&gt;&lt;font style=&quot;font-size: 18px&quot; color=&quot;#ff3333&quot;&gt;1&lt;/font&gt;&lt;/b&gt;" style="text;html=1;resizable=0;points=[];autosize=1;align=left;verticalAlign=top;spacingTop=-4;" parent="Uu9AmT3nj6WKYAnCRlqI-190" vertex="1">
          <mxGeometry x="31" width="30" height="20" as="geometry" />
        </mxCell>
        <mxCell id="Uu9AmT3nj6WKYAnCRlqI-193" value="&lt;font color=&quot;#ff3333&quot;&gt;&lt;span style=&quot;font-size: 18px&quot;&gt;&lt;b&gt;&amp;nbsp;0&lt;/b&gt;&lt;/span&gt;&lt;/font&gt;&lt;br&gt;" style="text;html=1;resizable=0;points=[];autosize=1;align=left;verticalAlign=top;spacingTop=-4;" parent="Uu9AmT3nj6WKYAnCRlqI-190" vertex="1">
          <mxGeometry x="59.5" width="30" height="20" as="geometry" />
        </mxCell>
        <mxCell id="Uu9AmT3nj6WKYAnCRlqI-194" value="" style="shape=partialRectangle;whiteSpace=wrap;html=1;bottom=1;right=1;left=1;top=0;fillColor=none;routingCenterX=-0.5;rotation=90;strokeWidth=2;" parent="1" vertex="1">
          <mxGeometry x="85" y="981" width="86" height="10" as="geometry" />
        </mxCell>
        <mxCell id="Uu9AmT3nj6WKYAnCRlqI-195" value="" style="shape=partialRectangle;whiteSpace=wrap;html=1;bottom=1;right=1;left=1;top=0;fillColor=none;routingCenterX=-0.5;rotation=-90;strokeWidth=2;" parent="1" vertex="1">
          <mxGeometry x="189" y="979" width="87" height="11" as="geometry" />
        </mxCell>
        <mxCell id="Uu9AmT3nj6WKYAnCRlqI-196" value="&lt;font style=&quot;font-size: 18px&quot;&gt;&lt;b&gt;1&lt;/b&gt;&lt;/font&gt;" style="text;html=1;resizable=0;points=[];autosize=1;align=left;verticalAlign=top;spacingTop=-4;" parent="1" vertex="1">
          <mxGeometry x="140" y="945" width="30" height="20" as="geometry" />
        </mxCell>
        <mxCell id="Uu9AmT3nj6WKYAnCRlqI-197" value="&lt;b&gt;&lt;font style=&quot;font-size: 18px&quot;&gt;2&lt;/font&gt;&lt;/b&gt;" style="text;html=1;resizable=0;points=[];autosize=1;align=left;verticalAlign=top;spacingTop=-4;" parent="1" vertex="1">
          <mxGeometry x="171" y="945" width="30" height="20" as="geometry" />
        </mxCell>
        <mxCell id="Uu9AmT3nj6WKYAnCRlqI-198" value="&lt;b&gt;&lt;font style=&quot;font-size: 18px&quot;&gt;1&lt;/font&gt;&lt;/b&gt;" style="text;html=1;resizable=0;points=[];autosize=1;align=left;verticalAlign=top;spacingTop=-4;" parent="1" vertex="1">
          <mxGeometry x="203.5" y="945" width="30" height="20" as="geometry" />
        </mxCell>
        <mxCell id="Uu9AmT3nj6WKYAnCRlqI-199" value="&lt;font style=&quot;font-size: 18px&quot;&gt;&lt;b&gt;3&lt;/b&gt;&lt;/font&gt;" style="text;html=1;resizable=0;points=[];autosize=1;align=left;verticalAlign=top;spacingTop=-4;" parent="1" vertex="1">
          <mxGeometry x="140" y="976" width="30" height="20" as="geometry" />
        </mxCell>
        <mxCell id="Uu9AmT3nj6WKYAnCRlqI-200" value="&lt;b&gt;&lt;font style=&quot;font-size: 18px&quot;&gt;8&lt;/font&gt;&lt;/b&gt;" style="text;html=1;resizable=0;points=[];autosize=1;align=left;verticalAlign=top;spacingTop=-4;" parent="1" vertex="1">
          <mxGeometry x="171" y="976" width="30" height="20" as="geometry" />
        </mxCell>
        <mxCell id="Uu9AmT3nj6WKYAnCRlqI-201" value="&lt;b&gt;&lt;font style=&quot;font-size: 18px&quot;&gt;1&lt;/font&gt;&lt;/b&gt;" style="text;html=1;resizable=0;points=[];autosize=1;align=left;verticalAlign=top;spacingTop=-4;" parent="1" vertex="1">
          <mxGeometry x="203.5" y="976" width="30" height="20" as="geometry" />
        </mxCell>
        <mxCell id="Uu9AmT3nj6WKYAnCRlqI-202" value="&lt;font style=&quot;font-size: 18px&quot;&gt;&lt;b&gt;0&lt;/b&gt;&lt;/font&gt;" style="text;html=1;resizable=0;points=[];autosize=1;align=left;verticalAlign=top;spacingTop=-4;" parent="1" vertex="1">
          <mxGeometry x="141" y="1003" width="30" height="20" as="geometry" />
        </mxCell>
        <mxCell id="Uu9AmT3nj6WKYAnCRlqI-203" value="&lt;b&gt;&lt;font style=&quot;font-size: 18px&quot;&gt;4&lt;/font&gt;&lt;/b&gt;" style="text;html=1;resizable=0;points=[];autosize=1;align=left;verticalAlign=top;spacingTop=-4;" parent="1" vertex="1">
          <mxGeometry x="172" y="1003" width="30" height="20" as="geometry" />
        </mxCell>
        <mxCell id="Uu9AmT3nj6WKYAnCRlqI-204" value="&lt;b&gt;&lt;font style=&quot;font-size: 18px&quot;&gt;1&lt;/font&gt;&lt;/b&gt;" style="text;html=1;resizable=0;points=[];autosize=1;align=left;verticalAlign=top;spacingTop=-4;" parent="1" vertex="1">
          <mxGeometry x="204.5" y="1003" width="30" height="20" as="geometry" />
        </mxCell>
        <mxCell id="Uu9AmT3nj6WKYAnCRlqI-206" value="" style="shape=partialRectangle;whiteSpace=wrap;html=1;bottom=1;right=1;left=1;top=0;fillColor=none;routingCenterX=-0.5;rotation=90;strokeWidth=2;" parent="1" vertex="1">
          <mxGeometry x="228" y="979" width="86" height="10" as="geometry" />
        </mxCell>
        <mxCell id="Uu9AmT3nj6WKYAnCRlqI-207" value="" style="shape=partialRectangle;whiteSpace=wrap;html=1;bottom=1;right=1;left=1;top=0;fillColor=none;routingCenterX=-0.5;rotation=-90;strokeWidth=2;" parent="1" vertex="1">
          <mxGeometry x="332" y="977" width="87" height="11" as="geometry" />
        </mxCell>
        <mxCell id="Uu9AmT3nj6WKYAnCRlqI-208" value="&lt;font style=&quot;font-size: 18px&quot;&gt;&lt;b&gt;1&lt;/b&gt;&lt;/font&gt;" style="text;html=1;resizable=0;points=[];autosize=1;align=left;verticalAlign=top;spacingTop=-4;" parent="1" vertex="1">
          <mxGeometry x="283" y="943" width="30" height="20" as="geometry" />
        </mxCell>
        <mxCell id="Uu9AmT3nj6WKYAnCRlqI-209" value="&lt;b&gt;&lt;font style=&quot;font-size: 18px&quot;&gt;2&lt;/font&gt;&lt;/b&gt;" style="text;html=1;resizable=0;points=[];autosize=1;align=left;verticalAlign=top;spacingTop=-4;" parent="1" vertex="1">
          <mxGeometry x="314" y="943" width="30" height="20" as="geometry" />
        </mxCell>
        <mxCell id="Uu9AmT3nj6WKYAnCRlqI-210" value="&lt;b&gt;&lt;font style=&quot;font-size: 18px&quot;&gt;1&lt;/font&gt;&lt;/b&gt;" style="text;html=1;resizable=0;points=[];autosize=1;align=left;verticalAlign=top;spacingTop=-4;" parent="1" vertex="1">
          <mxGeometry x="346.5" y="943" width="30" height="20" as="geometry" />
        </mxCell>
        <mxCell id="Uu9AmT3nj6WKYAnCRlqI-211" value="&lt;font style=&quot;font-size: 18px&quot;&gt;&lt;b&gt;0&lt;/b&gt;&lt;/font&gt;" style="text;html=1;resizable=0;points=[];autosize=1;align=left;verticalAlign=top;spacingTop=-4;" parent="1" vertex="1">
          <mxGeometry x="284" y="1001" width="30" height="20" as="geometry" />
        </mxCell>
        <mxCell id="Uu9AmT3nj6WKYAnCRlqI-212" value="&lt;b&gt;&lt;font style=&quot;font-size: 18px&quot;&gt;4&lt;/font&gt;&lt;/b&gt;" style="text;html=1;resizable=0;points=[];autosize=1;align=left;verticalAlign=top;spacingTop=-4;" parent="1" vertex="1">
          <mxGeometry x="315" y="1001" width="30" height="20" as="geometry" />
        </mxCell>
        <mxCell id="Uu9AmT3nj6WKYAnCRlqI-213" value="&lt;b&gt;&lt;font style=&quot;font-size: 18px&quot;&gt;1&lt;/font&gt;&lt;/b&gt;" style="text;html=1;resizable=0;points=[];autosize=1;align=left;verticalAlign=top;spacingTop=-4;" parent="1" vertex="1">
          <mxGeometry x="347.5" y="1001" width="30" height="20" as="geometry" />
        </mxCell>
        <mxCell id="Uu9AmT3nj6WKYAnCRlqI-214" value="" style="group" parent="1" vertex="1" connectable="0">
          <mxGeometry x="283" y="974" width="89.5" height="20" as="geometry" />
        </mxCell>
        <mxCell id="Uu9AmT3nj6WKYAnCRlqI-215" value="&lt;font style=&quot;font-size: 18px&quot; color=&quot;#000099&quot;&gt;&lt;b&gt;0&lt;/b&gt;&lt;/font&gt;" style="text;html=1;resizable=0;points=[];autosize=1;align=left;verticalAlign=top;spacingTop=-4;" parent="Uu9AmT3nj6WKYAnCRlqI-214" vertex="1">
          <mxGeometry width="30" height="20" as="geometry" />
        </mxCell>
        <mxCell id="Uu9AmT3nj6WKYAnCRlqI-216" value="&lt;b&gt;&lt;font style=&quot;font-size: 18px&quot; color=&quot;#000099&quot;&gt;2&lt;/font&gt;&lt;/b&gt;" style="text;html=1;resizable=0;points=[];autosize=1;align=left;verticalAlign=top;spacingTop=-4;" parent="Uu9AmT3nj6WKYAnCRlqI-214" vertex="1">
          <mxGeometry x="31" width="30" height="20" as="geometry" />
        </mxCell>
        <mxCell id="Uu9AmT3nj6WKYAnCRlqI-217" value="&lt;b&gt;&lt;font style=&quot;font-size: 18px&quot; color=&quot;#000099&quot;&gt;-2&lt;/font&gt;&lt;/b&gt;" style="text;html=1;resizable=0;points=[];autosize=1;align=left;verticalAlign=top;spacingTop=-4;" parent="Uu9AmT3nj6WKYAnCRlqI-214" vertex="1">
          <mxGeometry x="59.5" width="30" height="20" as="geometry" />
        </mxCell>
        <mxCell id="Uu9AmT3nj6WKYAnCRlqI-222" value="&lt;font style=&quot;font-size: 18px&quot; color=&quot;#ff3333&quot;&gt;&lt;b&gt;0&lt;/b&gt;&lt;/font&gt;" style="text;html=1;resizable=0;points=[];autosize=1;align=left;verticalAlign=top;spacingTop=-4;" parent="1" vertex="1">
          <mxGeometry x="46" y="1005" width="30" height="20" as="geometry" />
        </mxCell>
        <mxCell id="Uu9AmT3nj6WKYAnCRlqI-224" style="edgeStyle=orthogonalEdgeStyle;rounded=0;orthogonalLoop=1;jettySize=auto;html=1;entryX=0;entryY=0.85;entryDx=0;entryDy=0;entryPerimeter=0;strokeWidth=1;fontColor=#FF0000;" parent="1" source="Uu9AmT3nj6WKYAnCRlqI-150" target="Uu9AmT3nj6WKYAnCRlqI-191" edge="1">
          <mxGeometry relative="1" as="geometry">
            <Array as="points">
              <mxPoint x="-30" y="839" />
              <mxPoint x="-30" y="994" />
            </Array>
          </mxGeometry>
        </mxCell>
        <mxCell id="Uu9AmT3nj6WKYAnCRlqI-225" value="So this guy is our elementary matrix&lt;br&gt;" style="text;html=1;resizable=0;points=[];autosize=1;align=left;verticalAlign=top;spacingTop=-4;fontColor=#FF0000;" parent="1" vertex="1">
          <mxGeometry x="-2.5" y="1038" width="210" height="20" as="geometry" />
        </mxCell>
        <mxCell id="Uu9AmT3nj6WKYAnCRlqI-229" value="&lt;font color=&quot;#000000&quot;&gt;rows times matrix is a rows&lt;/font&gt;" style="text;html=1;resizable=0;points=[];autosize=1;align=left;verticalAlign=top;spacingTop=-4;fontColor=#FF0000;" parent="1" vertex="1">
          <mxGeometry x="237" y="1038" width="160" height="20" as="geometry" />
        </mxCell>
        <mxCell id="Uu9AmT3nj6WKYAnCRlqI-230" value="" style="shape=partialRectangle;whiteSpace=wrap;html=1;bottom=1;right=1;left=1;top=0;fillColor=none;routingCenterX=-0.5;rotation=90;strokeWidth=2;" parent="1" vertex="1">
          <mxGeometry x="708" y="582.5" width="62" height="10" as="geometry" />
        </mxCell>
        <mxCell id="Uu9AmT3nj6WKYAnCRlqI-255" style="edgeStyle=orthogonalEdgeStyle;rounded=0;orthogonalLoop=1;jettySize=auto;html=1;exitX=1;exitY=1;exitDx=0;exitDy=0;dashed=1;strokeWidth=1;fontColor=#FF0000;" parent="1" source="Uu9AmT3nj6WKYAnCRlqI-231" edge="1">
          <mxGeometry relative="1" as="geometry">
            <mxPoint x="937" y="560" as="targetPoint" />
            <Array as="points">
              <mxPoint x="802" y="560" />
            </Array>
          </mxGeometry>
        </mxCell>
        <mxCell id="Uu9AmT3nj6WKYAnCRlqI-231" value="" style="shape=partialRectangle;whiteSpace=wrap;html=1;bottom=1;right=1;left=1;top=0;fillColor=none;routingCenterX=-0.5;rotation=-90;strokeWidth=2;" parent="1" vertex="1">
          <mxGeometry x="765" y="581.5" width="63" height="11" as="geometry" />
        </mxCell>
        <mxCell id="Uu9AmT3nj6WKYAnCRlqI-234" value="&lt;b&gt;&lt;font style=&quot;font-size: 24px&quot; color=&quot;#000000&quot;&gt;a&lt;/font&gt;&lt;/b&gt;" style="text;html=1;resizable=0;points=[];autosize=1;align=left;verticalAlign=top;spacingTop=-4;fontColor=#FF0000;" parent="1" vertex="1">
          <mxGeometry x="741.5" y="555.5" width="30" height="20" as="geometry" />
        </mxCell>
        <mxCell id="Uu9AmT3nj6WKYAnCRlqI-236" value="&lt;b&gt;&lt;font style=&quot;font-size: 24px&quot; color=&quot;#000000&quot;&gt;b&lt;/font&gt;&lt;/b&gt;" style="text;html=1;resizable=0;points=[];autosize=1;align=left;verticalAlign=top;spacingTop=-4;fontColor=#FF0000;" parent="1" vertex="1">
          <mxGeometry x="773.5" y="555.5" width="30" height="20" as="geometry" />
        </mxCell>
        <mxCell id="Uu9AmT3nj6WKYAnCRlqI-237" value="&lt;font color=&quot;#000000&quot;&gt;&lt;span style=&quot;font-size: 24px&quot;&gt;&lt;b&gt;c&lt;/b&gt;&lt;/span&gt;&lt;/font&gt;" style="text;html=1;resizable=0;points=[];autosize=1;align=left;verticalAlign=top;spacingTop=-4;fontColor=#FF0000;" parent="1" vertex="1">
          <mxGeometry x="740.5" y="584.5" width="30" height="20" as="geometry" />
        </mxCell>
        <mxCell id="Uu9AmT3nj6WKYAnCRlqI-238" value="&lt;b&gt;&lt;font style=&quot;font-size: 24px&quot; color=&quot;#000000&quot;&gt;d&lt;/font&gt;&lt;/b&gt;" style="text;html=1;resizable=0;points=[];autosize=1;align=left;verticalAlign=top;spacingTop=-4;fontColor=#FF0000;" parent="1" vertex="1">
          <mxGeometry x="773.5" y="585.5" width="30" height="20" as="geometry" />
        </mxCell>
        <mxCell id="Uu9AmT3nj6WKYAnCRlqI-240" value="" style="shape=partialRectangle;whiteSpace=wrap;html=1;bottom=1;right=1;left=1;top=0;fillColor=none;routingCenterX=-0.5;rotation=90;strokeWidth=2;" parent="1" vertex="1">
          <mxGeometry x="921" y="580.5" width="62" height="10" as="geometry" />
        </mxCell>
        <mxCell id="Uu9AmT3nj6WKYAnCRlqI-241" value="" style="shape=partialRectangle;whiteSpace=wrap;html=1;bottom=1;right=1;left=1;top=0;fillColor=none;routingCenterX=-0.5;rotation=-90;strokeWidth=2;" parent="1" vertex="1">
          <mxGeometry x="978" y="579.5" width="63" height="11" as="geometry" />
        </mxCell>
        <mxCell id="Uu9AmT3nj6WKYAnCRlqI-242" value="&lt;b&gt;&lt;font style=&quot;font-size: 24px&quot; color=&quot;#000000&quot;&gt;b&lt;/font&gt;&lt;/b&gt;" style="text;html=1;resizable=0;points=[];autosize=1;align=left;verticalAlign=top;spacingTop=-4;fontColor=#FF0000;" parent="1" vertex="1">
          <mxGeometry x="954.5" y="553.5" width="30" height="20" as="geometry" />
        </mxCell>
        <mxCell id="Uu9AmT3nj6WKYAnCRlqI-243" value="&lt;b&gt;&lt;font style=&quot;font-size: 24px&quot; color=&quot;#000000&quot;&gt;a&lt;/font&gt;&lt;/b&gt;" style="text;html=1;resizable=0;points=[];autosize=1;align=left;verticalAlign=top;spacingTop=-4;fontColor=#FF0000;" parent="1" vertex="1">
          <mxGeometry x="986.5" y="553.5" width="30" height="20" as="geometry" />
        </mxCell>
        <mxCell id="Uu9AmT3nj6WKYAnCRlqI-244" value="&lt;font color=&quot;#000000&quot;&gt;&lt;span style=&quot;font-size: 24px&quot;&gt;&lt;b&gt;d&lt;/b&gt;&lt;/span&gt;&lt;/font&gt;" style="text;html=1;resizable=0;points=[];autosize=1;align=left;verticalAlign=top;spacingTop=-4;fontColor=#FF0000;" parent="1" vertex="1">
          <mxGeometry x="953.5" y="582.5" width="30" height="20" as="geometry" />
        </mxCell>
        <mxCell id="Uu9AmT3nj6WKYAnCRlqI-245" value="&lt;b&gt;&lt;font style=&quot;font-size: 24px&quot; color=&quot;#000000&quot;&gt;c&lt;/font&gt;&lt;/b&gt;" style="text;html=1;resizable=0;points=[];autosize=1;align=left;verticalAlign=top;spacingTop=-4;fontColor=#FF0000;" parent="1" vertex="1">
          <mxGeometry x="986.5" y="583.5" width="30" height="20" as="geometry" />
        </mxCell>
        <mxCell id="Uu9AmT3nj6WKYAnCRlqI-246" value="" style="shape=partialRectangle;whiteSpace=wrap;html=1;bottom=1;right=1;left=1;top=0;fillColor=none;routingCenterX=-0.5;rotation=90;strokeWidth=2;" parent="1" vertex="1">
          <mxGeometry x="796" y="580.5" width="62" height="10" as="geometry" />
        </mxCell>
        <mxCell id="Uu9AmT3nj6WKYAnCRlqI-256" style="edgeStyle=orthogonalEdgeStyle;rounded=0;orthogonalLoop=1;jettySize=auto;html=1;strokeWidth=1;fontColor=#FF0000;" parent="1" source="Uu9AmT3nj6WKYAnCRlqI-247" edge="1">
          <mxGeometry relative="1" as="geometry">
            <mxPoint x="884.5" y="646.5" as="targetPoint" />
          </mxGeometry>
        </mxCell>
        <mxCell id="Uu9AmT3nj6WKYAnCRlqI-247" value="" style="shape=partialRectangle;whiteSpace=wrap;html=1;bottom=1;right=1;left=1;top=0;fillColor=none;routingCenterX=-0.5;rotation=-90;strokeWidth=2;" parent="1" vertex="1">
          <mxGeometry x="853" y="579.5" width="63" height="11" as="geometry" />
        </mxCell>
        <mxCell id="Uu9AmT3nj6WKYAnCRlqI-252" value="&lt;font style=&quot;font-size: 48px&quot; color=&quot;#000000&quot;&gt;=&lt;/font&gt;" style="text;html=1;resizable=0;points=[];autosize=1;align=left;verticalAlign=top;spacingTop=-4;fontColor=#FF0000;" parent="1" vertex="1">
          <mxGeometry x="900.5" y="554" width="40" height="30" as="geometry" />
        </mxCell>
        <mxCell id="Uu9AmT3nj6WKYAnCRlqI-253" value="&lt;font style=&quot;font-size: 48px&quot; color=&quot;#000000&quot;&gt;？&lt;/font&gt;" style="text;html=1;resizable=0;points=[];autosize=1;align=left;verticalAlign=top;spacingTop=-4;fontColor=#FF0000;" parent="1" vertex="1">
          <mxGeometry x="838" y="556.5" width="60" height="30" as="geometry" />
        </mxCell>
        <mxCell id="Uu9AmT3nj6WKYAnCRlqI-257" value="" style="shape=partialRectangle;whiteSpace=wrap;html=1;bottom=1;right=1;left=1;top=0;fillColor=none;routingCenterX=-0.5;rotation=90;strokeWidth=2;" parent="1" vertex="1">
          <mxGeometry x="703" y="689.5" width="62" height="10" as="geometry" />
        </mxCell>
        <mxCell id="Uu9AmT3nj6WKYAnCRlqI-258" value="" style="shape=partialRectangle;whiteSpace=wrap;html=1;bottom=1;right=1;left=1;top=0;fillColor=none;routingCenterX=-0.5;rotation=-90;strokeWidth=2;" parent="1" vertex="1">
          <mxGeometry x="760" y="688.5" width="63" height="11" as="geometry" />
        </mxCell>
        <mxCell id="Uu9AmT3nj6WKYAnCRlqI-259" value="&lt;b&gt;&lt;font style=&quot;font-size: 24px&quot; color=&quot;#000000&quot;&gt;a&lt;/font&gt;&lt;/b&gt;" style="text;html=1;resizable=0;points=[];autosize=1;align=left;verticalAlign=top;spacingTop=-4;fontColor=#FF0000;" parent="1" vertex="1">
          <mxGeometry x="736.5" y="662.5" width="30" height="20" as="geometry" />
        </mxCell>
        <mxCell id="Uu9AmT3nj6WKYAnCRlqI-260" value="&lt;b&gt;&lt;font style=&quot;font-size: 24px&quot; color=&quot;#000000&quot;&gt;b&lt;/font&gt;&lt;/b&gt;" style="text;html=1;resizable=0;points=[];autosize=1;align=left;verticalAlign=top;spacingTop=-4;fontColor=#FF0000;" parent="1" vertex="1">
          <mxGeometry x="768.5" y="662.5" width="30" height="20" as="geometry" />
        </mxCell>
        <mxCell id="Uu9AmT3nj6WKYAnCRlqI-261" value="&lt;font color=&quot;#000000&quot;&gt;&lt;span style=&quot;font-size: 24px&quot;&gt;&lt;b&gt;c&lt;/b&gt;&lt;/span&gt;&lt;/font&gt;" style="text;html=1;resizable=0;points=[];autosize=1;align=left;verticalAlign=top;spacingTop=-4;fontColor=#FF0000;" parent="1" vertex="1">
          <mxGeometry x="735.5" y="691.5" width="30" height="20" as="geometry" />
        </mxCell>
        <mxCell id="Uu9AmT3nj6WKYAnCRlqI-262" value="&lt;b&gt;&lt;font style=&quot;font-size: 24px&quot; color=&quot;#000000&quot;&gt;d&lt;/font&gt;&lt;/b&gt;" style="text;html=1;resizable=0;points=[];autosize=1;align=left;verticalAlign=top;spacingTop=-4;fontColor=#FF0000;" parent="1" vertex="1">
          <mxGeometry x="768.5" y="692.5" width="30" height="20" as="geometry" />
        </mxCell>
        <mxCell id="Uu9AmT3nj6WKYAnCRlqI-263" value="" style="shape=partialRectangle;whiteSpace=wrap;html=1;bottom=1;right=1;left=1;top=0;fillColor=none;routingCenterX=-0.5;rotation=90;strokeWidth=2;" parent="1" vertex="1">
          <mxGeometry x="798" y="688.5" width="62" height="10" as="geometry" />
        </mxCell>
        <mxCell id="Uu9AmT3nj6WKYAnCRlqI-264" value="" style="shape=partialRectangle;whiteSpace=wrap;html=1;bottom=1;right=1;left=1;top=0;fillColor=none;routingCenterX=-0.5;rotation=-90;strokeWidth=2;" parent="1" vertex="1">
          <mxGeometry x="855" y="687.5" width="63" height="11" as="geometry" />
        </mxCell>
        <mxCell id="Uu9AmT3nj6WKYAnCRlqI-265" value="&lt;span style=&quot;font-size: 24px&quot;&gt;&lt;b&gt;0&lt;/b&gt;&lt;/span&gt;" style="text;html=1;resizable=0;points=[];autosize=1;align=left;verticalAlign=top;spacingTop=-4;fontColor=#FF0000;" parent="1" vertex="1">
          <mxGeometry x="831.5" y="661.5" width="30" height="20" as="geometry" />
        </mxCell>
        <mxCell id="Uu9AmT3nj6WKYAnCRlqI-266" value="&lt;b&gt;&lt;font style=&quot;font-size: 24px&quot;&gt;1&lt;/font&gt;&lt;/b&gt;" style="text;html=1;resizable=0;points=[];autosize=1;align=left;verticalAlign=top;spacingTop=-4;fontColor=#FF0000;" parent="1" vertex="1">
          <mxGeometry x="863.5" y="661.5" width="30" height="20" as="geometry" />
        </mxCell>
        <mxCell id="Uu9AmT3nj6WKYAnCRlqI-267" value="&lt;span style=&quot;font-size: 24px&quot;&gt;&lt;b&gt;1&lt;/b&gt;&lt;/span&gt;" style="text;html=1;resizable=0;points=[];autosize=1;align=left;verticalAlign=top;spacingTop=-4;fontColor=#FF0000;" parent="1" vertex="1">
          <mxGeometry x="830.5" y="690.5" width="30" height="20" as="geometry" />
        </mxCell>
        <mxCell id="Uu9AmT3nj6WKYAnCRlqI-268" value="&lt;b&gt;&lt;font style=&quot;font-size: 24px&quot;&gt;0&lt;/font&gt;&lt;/b&gt;" style="text;html=1;resizable=0;points=[];autosize=1;align=left;verticalAlign=top;spacingTop=-4;fontColor=#FF0000;" parent="1" vertex="1">
          <mxGeometry x="863.5" y="691.5" width="30" height="20" as="geometry" />
        </mxCell>
        <mxCell id="Uu9AmT3nj6WKYAnCRlqI-269" value="&lt;font style=&quot;font-size: 48px&quot; color=&quot;#000000&quot;&gt;=&lt;/font&gt;" style="text;html=1;resizable=0;points=[];autosize=1;align=left;verticalAlign=top;spacingTop=-4;fontColor=#FF0000;" parent="1" vertex="1">
          <mxGeometry x="905" y="660.5" width="40" height="30" as="geometry" />
        </mxCell>
        <mxCell id="Uu9AmT3nj6WKYAnCRlqI-271" value="" style="shape=partialRectangle;whiteSpace=wrap;html=1;bottom=1;right=1;left=1;top=0;fillColor=none;routingCenterX=-0.5;rotation=90;strokeWidth=2;" parent="1" vertex="1">
          <mxGeometry x="922" y="683.5" width="62" height="10" as="geometry" />
        </mxCell>
        <mxCell id="Uu9AmT3nj6WKYAnCRlqI-272" value="" style="shape=partialRectangle;whiteSpace=wrap;html=1;bottom=1;right=1;left=1;top=0;fillColor=none;routingCenterX=-0.5;rotation=-90;strokeWidth=2;" parent="1" vertex="1">
          <mxGeometry x="979" y="682.5" width="63" height="11" as="geometry" />
        </mxCell>
        <mxCell id="Uu9AmT3nj6WKYAnCRlqI-273" value="&lt;b&gt;&lt;font style=&quot;font-size: 24px&quot; color=&quot;#000000&quot;&gt;b&lt;/font&gt;&lt;/b&gt;" style="text;html=1;resizable=0;points=[];autosize=1;align=left;verticalAlign=top;spacingTop=-4;fontColor=#FF0000;" parent="1" vertex="1">
          <mxGeometry x="955.5" y="656.5" width="30" height="20" as="geometry" />
        </mxCell>
        <mxCell id="Uu9AmT3nj6WKYAnCRlqI-274" value="&lt;b&gt;&lt;font style=&quot;font-size: 24px&quot; color=&quot;#000000&quot;&gt;a&lt;/font&gt;&lt;/b&gt;" style="text;html=1;resizable=0;points=[];autosize=1;align=left;verticalAlign=top;spacingTop=-4;fontColor=#FF0000;" parent="1" vertex="1">
          <mxGeometry x="987.5" y="656.5" width="30" height="20" as="geometry" />
        </mxCell>
        <mxCell id="Uu9AmT3nj6WKYAnCRlqI-275" value="&lt;font color=&quot;#000000&quot;&gt;&lt;span style=&quot;font-size: 24px&quot;&gt;&lt;b&gt;d&lt;/b&gt;&lt;/span&gt;&lt;/font&gt;" style="text;html=1;resizable=0;points=[];autosize=1;align=left;verticalAlign=top;spacingTop=-4;fontColor=#FF0000;" parent="1" vertex="1">
          <mxGeometry x="954.5" y="685.5" width="30" height="20" as="geometry" />
        </mxCell>
        <mxCell id="Uu9AmT3nj6WKYAnCRlqI-276" value="&lt;b&gt;&lt;font style=&quot;font-size: 24px&quot; color=&quot;#000000&quot;&gt;c&lt;/font&gt;&lt;/b&gt;" style="text;html=1;resizable=0;points=[];autosize=1;align=left;verticalAlign=top;spacingTop=-4;fontColor=#FF0000;" parent="1" vertex="1">
          <mxGeometry x="987.5" y="686.5" width="30" height="20" as="geometry" />
        </mxCell>
        <mxCell id="Uu9AmT3nj6WKYAnCRlqI-277" value="" style="shape=partialRectangle;whiteSpace=wrap;html=1;bottom=1;right=1;left=1;top=0;fillColor=none;routingCenterX=-0.5;rotation=90;strokeWidth=2;" parent="1" vertex="1">
          <mxGeometry x="723" y="781.5" width="62" height="10" as="geometry" />
        </mxCell>
        <mxCell id="Uu9AmT3nj6WKYAnCRlqI-278" style="edgeStyle=orthogonalEdgeStyle;rounded=0;orthogonalLoop=1;jettySize=auto;html=1;exitX=1;exitY=1;exitDx=0;exitDy=0;dashed=1;strokeWidth=1;fontColor=#FF0000;entryX=1.025;entryY=-0.017;entryDx=0;entryDy=0;entryPerimeter=0;" parent="1" source="Uu9AmT3nj6WKYAnCRlqI-279" target="Uu9AmT3nj6WKYAnCRlqI-292" edge="1">
          <mxGeometry relative="1" as="geometry">
            <mxPoint x="874" y="754.5" as="targetPoint" />
            <Array as="points">
              <mxPoint x="830" y="755" />
              <mxPoint x="830" y="753" />
              <mxPoint x="820" y="753" />
              <mxPoint x="820" y="755" />
            </Array>
          </mxGeometry>
        </mxCell>
        <mxCell id="Uu9AmT3nj6WKYAnCRlqI-279" value="" style="shape=partialRectangle;whiteSpace=wrap;html=1;bottom=1;right=1;left=1;top=0;fillColor=none;routingCenterX=-0.5;rotation=-90;strokeWidth=2;" parent="1" vertex="1">
          <mxGeometry x="780" y="780.5" width="63" height="11" as="geometry" />
        </mxCell>
        <mxCell id="Uu9AmT3nj6WKYAnCRlqI-280" value="&lt;b&gt;&lt;font style=&quot;font-size: 24px&quot; color=&quot;#000000&quot;&gt;a&lt;/font&gt;&lt;/b&gt;" style="text;html=1;resizable=0;points=[];autosize=1;align=left;verticalAlign=top;spacingTop=-4;fontColor=#FF0000;" parent="1" vertex="1">
          <mxGeometry x="756.5" y="754.5" width="30" height="20" as="geometry" />
        </mxCell>
        <mxCell id="Uu9AmT3nj6WKYAnCRlqI-281" value="&lt;b&gt;&lt;font style=&quot;font-size: 24px&quot; color=&quot;#000000&quot;&gt;b&lt;/font&gt;&lt;/b&gt;" style="text;html=1;resizable=0;points=[];autosize=1;align=left;verticalAlign=top;spacingTop=-4;fontColor=#FF0000;" parent="1" vertex="1">
          <mxGeometry x="788.5" y="754.5" width="30" height="20" as="geometry" />
        </mxCell>
        <mxCell id="Uu9AmT3nj6WKYAnCRlqI-282" value="&lt;font color=&quot;#000000&quot;&gt;&lt;span style=&quot;font-size: 24px&quot;&gt;&lt;b&gt;c&lt;/b&gt;&lt;/span&gt;&lt;/font&gt;" style="text;html=1;resizable=0;points=[];autosize=1;align=left;verticalAlign=top;spacingTop=-4;fontColor=#FF0000;" parent="1" vertex="1">
          <mxGeometry x="755.5" y="783.5" width="30" height="20" as="geometry" />
        </mxCell>
        <mxCell id="Uu9AmT3nj6WKYAnCRlqI-283" value="&lt;b&gt;&lt;font style=&quot;font-size: 24px&quot; color=&quot;#000000&quot;&gt;d&lt;/font&gt;&lt;/b&gt;" style="text;html=1;resizable=0;points=[];autosize=1;align=left;verticalAlign=top;spacingTop=-4;fontColor=#FF0000;" parent="1" vertex="1">
          <mxGeometry x="788.5" y="784.5" width="30" height="20" as="geometry" />
        </mxCell>
        <mxCell id="Uu9AmT3nj6WKYAnCRlqI-284" value="" style="shape=partialRectangle;whiteSpace=wrap;html=1;bottom=1;right=1;left=1;top=0;fillColor=none;routingCenterX=-0.5;rotation=90;strokeWidth=2;" parent="1" vertex="1">
          <mxGeometry x="835" y="779.5" width="62" height="10" as="geometry" />
        </mxCell>
        <mxCell id="Uu9AmT3nj6WKYAnCRlqI-285" value="" style="shape=partialRectangle;whiteSpace=wrap;html=1;bottom=1;right=1;left=1;top=0;fillColor=none;routingCenterX=-0.5;rotation=-90;strokeWidth=2;" parent="1" vertex="1">
          <mxGeometry x="892" y="778.5" width="63" height="11" as="geometry" />
        </mxCell>
        <mxCell id="Uu9AmT3nj6WKYAnCRlqI-286" value="&lt;b&gt;&lt;font style=&quot;font-size: 24px&quot; color=&quot;#000000&quot;&gt;c&lt;/font&gt;&lt;/b&gt;" style="text;html=1;resizable=0;points=[];autosize=1;align=left;verticalAlign=top;spacingTop=-4;fontColor=#FF0000;" parent="1" vertex="1">
          <mxGeometry x="868.5" y="752.5" width="30" height="20" as="geometry" />
        </mxCell>
        <mxCell id="Uu9AmT3nj6WKYAnCRlqI-287" value="&lt;b&gt;&lt;font style=&quot;font-size: 24px&quot; color=&quot;#000000&quot;&gt;d&lt;/font&gt;&lt;/b&gt;" style="text;html=1;resizable=0;points=[];autosize=1;align=left;verticalAlign=top;spacingTop=-4;fontColor=#FF0000;" parent="1" vertex="1">
          <mxGeometry x="900.5" y="752.5" width="30" height="20" as="geometry" />
        </mxCell>
        <mxCell id="Uu9AmT3nj6WKYAnCRlqI-288" value="&lt;font color=&quot;#000000&quot;&gt;&lt;span style=&quot;font-size: 24px&quot;&gt;&lt;b&gt;a&lt;/b&gt;&lt;/span&gt;&lt;/font&gt;" style="text;html=1;resizable=0;points=[];autosize=1;align=left;verticalAlign=top;spacingTop=-4;fontColor=#FF0000;" parent="1" vertex="1">
          <mxGeometry x="867.5" y="781.5" width="30" height="20" as="geometry" />
        </mxCell>
        <mxCell id="Uu9AmT3nj6WKYAnCRlqI-289" value="&lt;b&gt;&lt;font style=&quot;font-size: 24px&quot; color=&quot;#000000&quot;&gt;b&lt;/font&gt;&lt;/b&gt;" style="text;html=1;resizable=0;points=[];autosize=1;align=left;verticalAlign=top;spacingTop=-4;fontColor=#FF0000;" parent="1" vertex="1">
          <mxGeometry x="900.5" y="782.5" width="30" height="20" as="geometry" />
        </mxCell>
        <mxCell id="Uu9AmT3nj6WKYAnCRlqI-290" value="" style="shape=partialRectangle;whiteSpace=wrap;html=1;bottom=1;right=1;left=1;top=0;fillColor=none;routingCenterX=-0.5;rotation=90;strokeWidth=2;" parent="1" vertex="1">
          <mxGeometry x="641.5" y="782.5" width="62" height="10" as="geometry" />
        </mxCell>
        <mxCell id="Uu9AmT3nj6WKYAnCRlqI-291" value="" style="shape=partialRectangle;whiteSpace=wrap;html=1;bottom=1;right=1;left=1;top=0;fillColor=none;routingCenterX=-0.5;rotation=-90;strokeWidth=2;" parent="1" vertex="1">
          <mxGeometry x="698.5" y="781.5" width="63" height="11" as="geometry" />
        </mxCell>
        <mxCell id="Uu9AmT3nj6WKYAnCRlqI-292" value="&lt;font style=&quot;font-size: 48px&quot; color=&quot;#000000&quot;&gt;=&lt;/font&gt;" style="text;html=1;resizable=0;points=[];autosize=1;align=left;verticalAlign=top;spacingTop=-4;fontColor=#FF0000;" parent="1" vertex="1">
          <mxGeometry x="818" y="755.5" width="40" height="30" as="geometry" />
        </mxCell>
        <mxCell id="Uu9AmT3nj6WKYAnCRlqI-293" value="&lt;font style=&quot;font-size: 48px&quot; color=&quot;#000000&quot;&gt;？&lt;/font&gt;" style="text;html=1;resizable=0;points=[];autosize=1;align=left;verticalAlign=top;spacingTop=-4;fontColor=#FF0000;" parent="1" vertex="1">
          <mxGeometry x="687.5" y="761.5" width="60" height="30" as="geometry" />
        </mxCell>
        <mxCell id="Uu9AmT3nj6WKYAnCRlqI-294" value="&lt;span&gt;&lt;b&gt;&lt;font style=&quot;font-size: 18px&quot;&gt;Application examples：&lt;/font&gt;&lt;/b&gt;&lt;/span&gt;" style="text;html=1;resizable=0;points=[];autosize=1;align=left;verticalAlign=top;spacingTop=-4;fontColor=#FF0000;" parent="1" vertex="1">
          <mxGeometry x="707.5" y="523.5" width="220" height="20" as="geometry" />
        </mxCell>
        <mxCell id="Uu9AmT3nj6WKYAnCRlqI-296" value="&lt;font style=&quot;font-size: 18px&quot;&gt;&lt;b&gt;1、&lt;/b&gt;&lt;/font&gt;" style="text;html=1;resizable=0;points=[];autosize=1;align=left;verticalAlign=top;spacingTop=-4;fontColor=#FF0000;" parent="1" vertex="1">
          <mxGeometry x="690" y="558.5" width="40" height="20" as="geometry" />
        </mxCell>
        <mxCell id="Uu9AmT3nj6WKYAnCRlqI-297" value="&lt;font style=&quot;font-size: 18px&quot;&gt;&lt;b&gt;2、&lt;/b&gt;&lt;/font&gt;" style="text;html=1;resizable=0;points=[];autosize=1;align=left;verticalAlign=top;spacingTop=-4;fontColor=#FF0000;" parent="1" vertex="1">
          <mxGeometry x="624" y="745.5" width="40" height="20" as="geometry" />
        </mxCell>
        <mxCell id="Uu9AmT3nj6WKYAnCRlqI-300" value="" style="rounded=0;comic=1;strokeWidth=1;endArrow=blockThin;html=1;fontFamily=Comic Sans MS;fontStyle=1;exitX=0.067;exitY=1;exitDx=0;exitDy=0;exitPerimeter=0;" parent="1" source="Uu9AmT3nj6WKYAnCRlqI-191" edge="1">
          <mxGeometry width="50" height="50" relative="1" as="geometry">
            <mxPoint x="-120" y="1070" as="sourcePoint" />
            <mxPoint x="-40" y="1020" as="targetPoint" />
          </mxGeometry>
        </mxCell>
        <mxCell id="Uu9AmT3nj6WKYAnCRlqI-306" value="" style="group" parent="1" vertex="1" connectable="0">
          <mxGeometry x="-174" y="1009" width="167" height="40" as="geometry" />
        </mxCell>
        <mxCell id="Uu9AmT3nj6WKYAnCRlqI-302" value="&lt;font style=&quot;font-size: 18px&quot;&gt;21&lt;/font&gt;" style="text;html=1;resizable=0;points=[];autosize=1;align=left;verticalAlign=top;spacingTop=-4;fontColor=#FF0000;" parent="Uu9AmT3nj6WKYAnCRlqI-306" vertex="1">
          <mxGeometry x="127" y="20" width="40" height="20" as="geometry" />
        </mxCell>
        <mxCell id="Uu9AmT3nj6WKYAnCRlqI-305" value="" style="group" parent="Uu9AmT3nj6WKYAnCRlqI-306" vertex="1" connectable="0">
          <mxGeometry width="144" height="29" as="geometry" />
        </mxCell>
        <mxCell id="Uu9AmT3nj6WKYAnCRlqI-304" value="" style="group" parent="Uu9AmT3nj6WKYAnCRlqI-305" vertex="1" connectable="0">
          <mxGeometry width="144" height="29" as="geometry" />
        </mxCell>
        <mxCell id="Uu9AmT3nj6WKYAnCRlqI-301" value="&lt;font style=&quot;font-size: 36px&quot;&gt;E&lt;/font&gt;" style="text;html=1;resizable=0;points=[];autosize=1;align=left;verticalAlign=top;spacingTop=-4;fontColor=#FF0000;" parent="Uu9AmT3nj6WKYAnCRlqI-304" vertex="1">
          <mxGeometry x="104" width="40" height="20" as="geometry" />
        </mxCell>
        <mxCell id="Uu9AmT3nj6WKYAnCRlqI-303" value="&lt;b&gt;&lt;font style=&quot;font-size: 14px&quot;&gt;这里把“-3”记作：&lt;/font&gt;&lt;/b&gt;" style="text;html=1;resizable=0;points=[];autosize=1;align=left;verticalAlign=top;spacingTop=-4;fontColor=#FF0000;" parent="Uu9AmT3nj6WKYAnCRlqI-304" vertex="1">
          <mxGeometry y="9" width="130" height="20" as="geometry" />
        </mxCell>
        <mxCell id="Uu9AmT3nj6WKYAnCRlqI-309" value="" style="group" parent="1" vertex="1" connectable="0">
          <mxGeometry x="-84" y="1180" width="63" height="40" as="geometry" />
        </mxCell>
        <mxCell id="Uu9AmT3nj6WKYAnCRlqI-307" value="&lt;font style=&quot;font-size: 36px&quot;&gt;E&lt;/font&gt;" style="text;html=1;resizable=0;points=[];autosize=1;align=left;verticalAlign=top;spacingTop=-4;fontColor=#FF0000;" parent="Uu9AmT3nj6WKYAnCRlqI-309" vertex="1">
          <mxGeometry width="40" height="20" as="geometry" />
        </mxCell>
        <mxCell id="Uu9AmT3nj6WKYAnCRlqI-308" value="&lt;font style=&quot;font-size: 18px&quot;&gt;32&lt;/font&gt;" style="text;html=1;resizable=0;points=[];autosize=1;align=left;verticalAlign=top;spacingTop=-4;fontColor=#FF0000;" parent="Uu9AmT3nj6WKYAnCRlqI-309" vertex="1">
          <mxGeometry x="23" y="20" width="40" height="20" as="geometry" />
        </mxCell>
        <mxCell id="Uu9AmT3nj6WKYAnCRlqI-310" value="" style="rounded=0;comic=1;strokeWidth=1;endArrow=blockThin;html=1;fontFamily=Comic Sans MS;fontStyle=1;" parent="1" edge="1">
          <mxGeometry width="50" height="50" relative="1" as="geometry">
            <mxPoint x="-55" y="1205" as="sourcePoint" />
            <mxPoint x="-5" y="1155" as="targetPoint" />
          </mxGeometry>
        </mxCell>
        <mxCell id="Uu9AmT3nj6WKYAnCRlqI-311" value="" style="shape=partialRectangle;whiteSpace=wrap;html=1;bottom=1;right=1;left=1;top=0;fillColor=none;routingCenterX=-0.5;rotation=90;strokeWidth=2;strokeColor=#FF0000;" parent="1" vertex="1">
          <mxGeometry x="-42" y="1167" width="86" height="10" as="geometry" />
        </mxCell>
        <mxCell id="Uu9AmT3nj6WKYAnCRlqI-312" value="" style="shape=partialRectangle;whiteSpace=wrap;html=1;bottom=1;right=1;left=1;top=0;fillColor=none;routingCenterX=-0.5;rotation=-90;strokeWidth=2;strokeColor=#FF0000;" parent="1" vertex="1">
          <mxGeometry x="62" y="1165" width="87" height="11" as="geometry" />
        </mxCell>
        <mxCell id="Uu9AmT3nj6WKYAnCRlqI-313" value="&lt;font style=&quot;font-size: 18px&quot; color=&quot;#ff3333&quot;&gt;&lt;b&gt;1&lt;/b&gt;&lt;/font&gt;" style="text;html=1;resizable=0;points=[];autosize=1;align=left;verticalAlign=top;spacingTop=-4;" parent="1" vertex="1">
          <mxGeometry x="13" y="1131" width="30" height="20" as="geometry" />
        </mxCell>
        <mxCell id="Uu9AmT3nj6WKYAnCRlqI-314" value="&lt;b&gt;&lt;font style=&quot;font-size: 18px&quot; color=&quot;#ff3333&quot;&gt;0&lt;/font&gt;&lt;/b&gt;" style="text;html=1;resizable=0;points=[];autosize=1;align=left;verticalAlign=top;spacingTop=-4;" parent="1" vertex="1">
          <mxGeometry x="44" y="1131" width="30" height="20" as="geometry" />
        </mxCell>
        <mxCell id="Uu9AmT3nj6WKYAnCRlqI-315" value="&lt;b&gt;&lt;font style=&quot;font-size: 18px&quot; color=&quot;#ff3333&quot;&gt;0&lt;/font&gt;&lt;/b&gt;" style="text;html=1;resizable=0;points=[];autosize=1;align=left;verticalAlign=top;spacingTop=-4;" parent="1" vertex="1">
          <mxGeometry x="76.5" y="1131" width="30" height="20" as="geometry" />
        </mxCell>
        <mxCell id="Uu9AmT3nj6WKYAnCRlqI-316" value="&lt;font style=&quot;font-size: 18px&quot; color=&quot;#ff3333&quot;&gt;&lt;b&gt;？&lt;/b&gt;&lt;/font&gt;" style="text;html=1;resizable=0;points=[];autosize=1;align=left;verticalAlign=top;spacingTop=-4;" parent="1" vertex="1">
          <mxGeometry x="14" y="1189" width="30" height="20" as="geometry" />
        </mxCell>
        <mxCell id="Uu9AmT3nj6WKYAnCRlqI-317" value="&lt;b&gt;&lt;font style=&quot;font-size: 18px&quot; color=&quot;#ff3333&quot;&gt;?&lt;/font&gt;&lt;/b&gt;" style="text;html=1;resizable=0;points=[];autosize=1;align=left;verticalAlign=top;spacingTop=-4;" parent="1" vertex="1">
          <mxGeometry x="77.5" y="1189" width="30" height="20" as="geometry" />
        </mxCell>
        <mxCell id="Uu9AmT3nj6WKYAnCRlqI-318" value="" style="group" parent="1" vertex="1" connectable="0">
          <mxGeometry x="13" y="1162" width="99.5" height="20" as="geometry" />
        </mxCell>
        <mxCell id="Uu9AmT3nj6WKYAnCRlqI-319" value="&lt;font style=&quot;font-size: 18px&quot; color=&quot;#ff3333&quot;&gt;&lt;b&gt;0&lt;/b&gt;&lt;/font&gt;" style="text;html=1;resizable=0;points=[];autosize=1;align=left;verticalAlign=top;spacingTop=-4;" parent="Uu9AmT3nj6WKYAnCRlqI-318" vertex="1">
          <mxGeometry width="30" height="20" as="geometry" />
        </mxCell>
        <mxCell id="Uu9AmT3nj6WKYAnCRlqI-320" value="&lt;b&gt;&lt;font style=&quot;font-size: 18px&quot; color=&quot;#ff3333&quot;&gt;1&lt;/font&gt;&lt;/b&gt;" style="text;html=1;resizable=0;points=[];autosize=1;align=left;verticalAlign=top;spacingTop=-4;" parent="Uu9AmT3nj6WKYAnCRlqI-318" vertex="1">
          <mxGeometry x="31" width="30" height="20" as="geometry" />
        </mxCell>
        <mxCell id="Uu9AmT3nj6WKYAnCRlqI-321" value="&lt;font color=&quot;#ff3333&quot;&gt;&lt;span style=&quot;font-size: 18px&quot;&gt;&lt;b&gt;&amp;nbsp;0&lt;/b&gt;&lt;/span&gt;&lt;/font&gt;&lt;br&gt;" style="text;html=1;resizable=0;points=[];autosize=1;align=left;verticalAlign=top;spacingTop=-4;" parent="Uu9AmT3nj6WKYAnCRlqI-318" vertex="1">
          <mxGeometry x="59.5" width="30" height="20" as="geometry" />
        </mxCell>
        <mxCell id="Uu9AmT3nj6WKYAnCRlqI-322" value="" style="shape=partialRectangle;whiteSpace=wrap;html=1;bottom=1;right=1;left=1;top=0;fillColor=none;routingCenterX=-0.5;rotation=90;strokeWidth=2;" parent="1" vertex="1">
          <mxGeometry x="84" y="1166" width="86" height="10" as="geometry" />
        </mxCell>
        <mxCell id="Uu9AmT3nj6WKYAnCRlqI-323" value="" style="shape=partialRectangle;whiteSpace=wrap;html=1;bottom=1;right=1;left=1;top=0;fillColor=none;routingCenterX=-0.5;rotation=-90;strokeWidth=2;" parent="1" vertex="1">
          <mxGeometry x="188" y="1164" width="87" height="11" as="geometry" />
        </mxCell>
        <mxCell id="Uu9AmT3nj6WKYAnCRlqI-324" value="&lt;font style=&quot;font-size: 18px&quot;&gt;&lt;b&gt;1&lt;/b&gt;&lt;/font&gt;" style="text;html=1;resizable=0;points=[];autosize=1;align=left;verticalAlign=top;spacingTop=-4;" parent="1" vertex="1">
          <mxGeometry x="139" y="1130" width="30" height="20" as="geometry" />
        </mxCell>
        <mxCell id="Uu9AmT3nj6WKYAnCRlqI-325" value="&lt;b&gt;&lt;font style=&quot;font-size: 18px&quot;&gt;2&lt;/font&gt;&lt;/b&gt;" style="text;html=1;resizable=0;points=[];autosize=1;align=left;verticalAlign=top;spacingTop=-4;" parent="1" vertex="1">
          <mxGeometry x="170" y="1130" width="30" height="20" as="geometry" />
        </mxCell>
        <mxCell id="Uu9AmT3nj6WKYAnCRlqI-326" value="&lt;b&gt;&lt;font style=&quot;font-size: 18px&quot;&gt;1&lt;/font&gt;&lt;/b&gt;" style="text;html=1;resizable=0;points=[];autosize=1;align=left;verticalAlign=top;spacingTop=-4;" parent="1" vertex="1">
          <mxGeometry x="202.5" y="1130" width="30" height="20" as="geometry" />
        </mxCell>
        <mxCell id="Uu9AmT3nj6WKYAnCRlqI-327" value="&lt;font style=&quot;font-size: 18px&quot;&gt;&lt;b&gt;0&lt;/b&gt;&lt;/font&gt;" style="text;html=1;resizable=0;points=[];autosize=1;align=left;verticalAlign=top;spacingTop=-4;" parent="1" vertex="1">
          <mxGeometry x="139" y="1161" width="30" height="20" as="geometry" />
        </mxCell>
        <mxCell id="Uu9AmT3nj6WKYAnCRlqI-328" value="&lt;b&gt;&lt;font style=&quot;font-size: 18px&quot;&gt;2&lt;/font&gt;&lt;/b&gt;" style="text;html=1;resizable=0;points=[];autosize=1;align=left;verticalAlign=top;spacingTop=-4;" parent="1" vertex="1">
          <mxGeometry x="170" y="1161" width="30" height="20" as="geometry" />
        </mxCell>
        <mxCell id="Uu9AmT3nj6WKYAnCRlqI-329" value="&lt;b&gt;&lt;font style=&quot;font-size: 18px&quot;&gt;-2&lt;/font&gt;&lt;/b&gt;" style="text;html=1;resizable=0;points=[];autosize=1;align=left;verticalAlign=top;spacingTop=-4;" parent="1" vertex="1">
          <mxGeometry x="202.5" y="1161" width="30" height="20" as="geometry" />
        </mxCell>
        <mxCell id="Uu9AmT3nj6WKYAnCRlqI-330" value="&lt;font style=&quot;font-size: 18px&quot;&gt;&lt;b&gt;0&lt;/b&gt;&lt;/font&gt;" style="text;html=1;resizable=0;points=[];autosize=1;align=left;verticalAlign=top;spacingTop=-4;" parent="1" vertex="1">
          <mxGeometry x="140" y="1188" width="30" height="20" as="geometry" />
        </mxCell>
        <mxCell id="Uu9AmT3nj6WKYAnCRlqI-331" value="&lt;b&gt;&lt;font style=&quot;font-size: 18px&quot;&gt;4&lt;/font&gt;&lt;/b&gt;" style="text;html=1;resizable=0;points=[];autosize=1;align=left;verticalAlign=top;spacingTop=-4;" parent="1" vertex="1">
          <mxGeometry x="171" y="1188" width="30" height="20" as="geometry" />
        </mxCell>
        <mxCell id="Uu9AmT3nj6WKYAnCRlqI-332" value="&lt;b&gt;&lt;font style=&quot;font-size: 18px&quot;&gt;1&lt;/font&gt;&lt;/b&gt;" style="text;html=1;resizable=0;points=[];autosize=1;align=left;verticalAlign=top;spacingTop=-4;" parent="1" vertex="1">
          <mxGeometry x="203.5" y="1188" width="30" height="20" as="geometry" />
        </mxCell>
        <mxCell id="Uu9AmT3nj6WKYAnCRlqI-333" value="&lt;font style=&quot;font-size: 48px&quot;&gt;&lt;b&gt;=&lt;/b&gt;&lt;/font&gt;" style="text;html=1;resizable=0;points=[];autosize=1;align=left;verticalAlign=top;spacingTop=-4;" parent="1" vertex="1">
          <mxGeometry x="244" y="1134" width="40" height="30" as="geometry" />
        </mxCell>
        <mxCell id="Uu9AmT3nj6WKYAnCRlqI-393" value="&lt;font style=&quot;font-size: 48px&quot;&gt;=&lt;/font&gt;" style="text;html=1;resizable=0;points=[];autosize=1;align=left;verticalAlign=top;spacingTop=-4;" parent="1" vertex="1">
          <mxGeometry x="142" y="1349" width="40" height="30" as="geometry" />
        </mxCell>
        <mxCell id="Uu9AmT3nj6WKYAnCRlqI-334" value="" style="shape=partialRectangle;whiteSpace=wrap;html=1;bottom=1;right=1;left=1;top=0;fillColor=none;routingCenterX=-0.5;rotation=90;strokeWidth=2;" parent="1" vertex="1">
          <mxGeometry x="238" y="1164" width="86" height="10" as="geometry" />
        </mxCell>
        <mxCell id="Uu9AmT3nj6WKYAnCRlqI-335" value="" style="shape=partialRectangle;whiteSpace=wrap;html=1;bottom=1;right=1;left=1;top=0;fillColor=none;routingCenterX=-0.5;rotation=-90;strokeWidth=2;" parent="1" vertex="1">
          <mxGeometry x="342" y="1162" width="87" height="11" as="geometry" />
        </mxCell>
        <mxCell id="Uu9AmT3nj6WKYAnCRlqI-336" value="&lt;font style=&quot;font-size: 18px&quot;&gt;&lt;b&gt;1&lt;/b&gt;&lt;/font&gt;" style="text;html=1;resizable=0;points=[];autosize=1;align=left;verticalAlign=top;spacingTop=-4;" parent="1" vertex="1">
          <mxGeometry x="293" y="1128" width="30" height="20" as="geometry" />
        </mxCell>
        <mxCell id="Uu9AmT3nj6WKYAnCRlqI-337" value="&lt;b&gt;&lt;font style=&quot;font-size: 18px&quot;&gt;2&lt;/font&gt;&lt;/b&gt;" style="text;html=1;resizable=0;points=[];autosize=1;align=left;verticalAlign=top;spacingTop=-4;" parent="1" vertex="1">
          <mxGeometry x="324" y="1128" width="30" height="20" as="geometry" />
        </mxCell>
        <mxCell id="Uu9AmT3nj6WKYAnCRlqI-338" value="&lt;b&gt;&lt;font style=&quot;font-size: 18px&quot;&gt;1&lt;/font&gt;&lt;/b&gt;" style="text;html=1;resizable=0;points=[];autosize=1;align=left;verticalAlign=top;spacingTop=-4;" parent="1" vertex="1">
          <mxGeometry x="356.5" y="1128" width="30" height="20" as="geometry" />
        </mxCell>
        <mxCell id="Uu9AmT3nj6WKYAnCRlqI-339" value="&lt;font style=&quot;font-size: 18px&quot;&gt;&lt;b&gt;0&lt;/b&gt;&lt;/font&gt;" style="text;html=1;resizable=0;points=[];autosize=1;align=left;verticalAlign=top;spacingTop=-4;" parent="1" vertex="1">
          <mxGeometry x="294" y="1186" width="30" height="20" as="geometry" />
        </mxCell>
        <mxCell id="Uu9AmT3nj6WKYAnCRlqI-340" value="&lt;b&gt;&lt;font style=&quot;font-size: 18px&quot;&gt;0&lt;/font&gt;&lt;/b&gt;" style="text;html=1;resizable=0;points=[];autosize=1;align=left;verticalAlign=top;spacingTop=-4;" parent="1" vertex="1">
          <mxGeometry x="325" y="1186" width="30" height="20" as="geometry" />
        </mxCell>
        <mxCell id="Uu9AmT3nj6WKYAnCRlqI-341" value="&lt;b&gt;&lt;font style=&quot;font-size: 18px&quot;&gt;5&lt;/font&gt;&lt;/b&gt;" style="text;html=1;resizable=0;points=[];autosize=1;align=left;verticalAlign=top;spacingTop=-4;" parent="1" vertex="1">
          <mxGeometry x="357.5" y="1186" width="30" height="20" as="geometry" />
        </mxCell>
        <mxCell id="Uu9AmT3nj6WKYAnCRlqI-342" value="" style="group" parent="1" vertex="1" connectable="0">
          <mxGeometry x="293" y="1159" width="89.5" height="20" as="geometry" />
        </mxCell>
        <mxCell id="Uu9AmT3nj6WKYAnCRlqI-343" value="&lt;font style=&quot;font-size: 18px&quot; color=&quot;#000099&quot;&gt;&lt;b&gt;0&lt;/b&gt;&lt;/font&gt;" style="text;html=1;resizable=0;points=[];autosize=1;align=left;verticalAlign=top;spacingTop=-4;" parent="Uu9AmT3nj6WKYAnCRlqI-342" vertex="1">
          <mxGeometry width="30" height="20" as="geometry" />
        </mxCell>
        <mxCell id="Uu9AmT3nj6WKYAnCRlqI-344" value="&lt;b&gt;&lt;font style=&quot;font-size: 18px&quot; color=&quot;#000099&quot;&gt;2&lt;/font&gt;&lt;/b&gt;" style="text;html=1;resizable=0;points=[];autosize=1;align=left;verticalAlign=top;spacingTop=-4;" parent="Uu9AmT3nj6WKYAnCRlqI-342" vertex="1">
          <mxGeometry x="31" width="30" height="20" as="geometry" />
        </mxCell>
        <mxCell id="Uu9AmT3nj6WKYAnCRlqI-345" value="&lt;b&gt;&lt;font style=&quot;font-size: 18px&quot; color=&quot;#000099&quot;&gt;-2&lt;/font&gt;&lt;/b&gt;" style="text;html=1;resizable=0;points=[];autosize=1;align=left;verticalAlign=top;spacingTop=-4;" parent="Uu9AmT3nj6WKYAnCRlqI-342" vertex="1">
          <mxGeometry x="59.5" width="30" height="20" as="geometry" />
        </mxCell>
        <mxCell id="Uu9AmT3nj6WKYAnCRlqI-346" value="&lt;font style=&quot;font-size: 18px&quot; color=&quot;#ff3333&quot;&gt;&lt;b&gt;？&lt;/b&gt;&lt;/font&gt;" style="text;html=1;resizable=0;points=[];autosize=1;align=left;verticalAlign=top;spacingTop=-4;" parent="1" vertex="1">
          <mxGeometry x="45" y="1190" width="30" height="20" as="geometry" />
        </mxCell>
        <mxCell id="Uu9AmT3nj6WKYAnCRlqI-347" value="" style="edgeStyle=elbowEdgeStyle;elbow=vertical;endArrow=classic;html=1;strokeWidth=1;fontColor=#FF0000;entryX=0.267;entryY=1.3;entryDx=0;entryDy=0;entryPerimeter=0;exitX=0.1;exitY=1.25;exitDx=0;exitDy=0;exitPerimeter=0;" parent="1" source="Uu9AmT3nj6WKYAnCRlqI-331" target="Uu9AmT3nj6WKYAnCRlqI-340" edge="1">
          <mxGeometry width="50" height="50" relative="1" as="geometry">
            <mxPoint x="200" y="1130" as="sourcePoint" />
            <mxPoint x="250" y="1080" as="targetPoint" />
            <Array as="points">
              <mxPoint x="260" y="1240" />
            </Array>
          </mxGeometry>
        </mxCell>
        <mxCell id="Uu9AmT3nj6WKYAnCRlqI-348" value="任然按照消元法进行操作" style="text;html=1;resizable=0;points=[];autosize=1;align=left;verticalAlign=top;spacingTop=-4;fontColor=#FF0000;" parent="1" vertex="1">
          <mxGeometry x="186" y="1219" width="150" height="20" as="geometry" />
        </mxCell>
        <mxCell id="Uu9AmT3nj6WKYAnCRlqI-350" style="edgeStyle=orthogonalEdgeStyle;rounded=0;orthogonalLoop=1;jettySize=auto;html=1;strokeWidth=1;fontColor=#FF0000;exitX=1.133;exitY=0.65;exitDx=0;exitDy=0;exitPerimeter=0;" parent="1" source="Uu9AmT3nj6WKYAnCRlqI-150" edge="1">
          <mxGeometry relative="1" as="geometry">
            <mxPoint x="-80" y="842" as="targetPoint" />
            <mxPoint x="25" y="818" as="sourcePoint" />
          </mxGeometry>
        </mxCell>
        <mxCell id="Uu9AmT3nj6WKYAnCRlqI-351" style="edgeStyle=orthogonalEdgeStyle;rounded=0;orthogonalLoop=1;jettySize=auto;html=1;strokeWidth=1;fontColor=#FF0000;" parent="1" source="Uu9AmT3nj6WKYAnCRlqI-148" edge="1">
          <mxGeometry relative="1" as="geometry">
            <mxPoint x="-80" y="866" as="targetPoint" />
            <mxPoint x="35" y="828" as="sourcePoint" />
          </mxGeometry>
        </mxCell>
        <mxCell id="Uu9AmT3nj6WKYAnCRlqI-352" value="表示：row one no change" style="text;html=1;resizable=0;points=[];autosize=1;align=left;verticalAlign=top;spacingTop=-4;fontColor=#FF0000;" parent="1" vertex="1">
          <mxGeometry x="-231" y="797" width="150" height="20" as="geometry" />
        </mxCell>
        <mxCell id="Uu9AmT3nj6WKYAnCRlqI-353" value="row two no change" style="text;html=1;resizable=0;points=[];autosize=1;align=left;verticalAlign=top;spacingTop=-4;fontColor=#FF0000;" parent="1" vertex="1">
          <mxGeometry x="-195" y="830" width="120" height="20" as="geometry" />
        </mxCell>
        <mxCell id="Uu9AmT3nj6WKYAnCRlqI-354" value="row three no change" style="text;html=1;fontColor=#FF0000;" parent="1" vertex="1">
          <mxGeometry x="-191" y="855" width="130" height="30" as="geometry" />
        </mxCell>
        <mxCell id="Uu9AmT3nj6WKYAnCRlqI-355" value="&lt;b&gt;&lt;font color=&quot;#000000&quot; style=&quot;font-size: 18px&quot;&gt;subtract 2 times row2 from row3：&lt;/font&gt;&lt;/b&gt;" style="text;html=1;resizable=0;points=[];autosize=1;align=left;verticalAlign=top;spacingTop=-4;fontColor=#FF0000;" parent="1" vertex="1">
          <mxGeometry x="-131" y="1084" width="310" height="20" as="geometry" />
        </mxCell>
        <mxCell id="Uu9AmT3nj6WKYAnCRlqI-356" value="" style="rounded=0;comic=1;strokeWidth=2;endArrow=blockThin;html=1;fontFamily=Comic Sans MS;fontStyle=1;" parent="1" edge="1">
          <mxGeometry width="50" height="50" relative="1" as="geometry">
            <mxPoint x="380" y="1200" as="sourcePoint" />
            <mxPoint x="410" y="1180" as="targetPoint" />
          </mxGeometry>
        </mxCell>
        <mxCell id="Uu9AmT3nj6WKYAnCRlqI-357" value="&lt;font style=&quot;font-size: 36px&quot;&gt;U&lt;/font&gt;" style="text;html=1;resizable=0;points=[];autosize=1;align=left;verticalAlign=top;spacingTop=-4;fontColor=#FF0000;" parent="1" vertex="1">
          <mxGeometry x="413" y="1157.5" width="40" height="20" as="geometry" />
        </mxCell>
        <mxCell id="Uu9AmT3nj6WKYAnCRlqI-360" value="&lt;font style=&quot;font-size: 36px&quot; color=&quot;#000000&quot;&gt;E&lt;/font&gt;" style="text;html=1;resizable=0;points=[];autosize=1;align=left;verticalAlign=top;spacingTop=-4;fontColor=#FF0000;" parent="1" vertex="1">
          <mxGeometry x="2" y="1269" width="40" height="20" as="geometry" />
        </mxCell>
        <mxCell id="Uu9AmT3nj6WKYAnCRlqI-362" value="&lt;font style=&quot;font-size: 18px&quot; color=&quot;#000000&quot;&gt;21&lt;/font&gt;" style="text;html=1;resizable=0;points=[];autosize=1;align=left;verticalAlign=top;spacingTop=-4;fontColor=#FF0000;" parent="1" vertex="1">
          <mxGeometry x="25" y="1287" width="40" height="20" as="geometry" />
        </mxCell>
        <mxCell id="Uu9AmT3nj6WKYAnCRlqI-364" value="matrix &lt;font style=&quot;font-size: 18px&quot;&gt;A&lt;/font&gt;" style="text;html=1;resizable=0;points=[];autosize=1;align=left;verticalAlign=top;spacingTop=-4;fontColor=#FF0000;" parent="1" vertex="1">
          <mxGeometry x="127" y="1229.5" width="60" height="20" as="geometry" />
        </mxCell>
        <mxCell id="Uu9AmT3nj6WKYAnCRlqI-365" value="&lt;font style=&quot;font-size: 36px&quot; color=&quot;#000000&quot;&gt;A&lt;/font&gt;" style="text;html=1;resizable=0;points=[];autosize=1;align=left;verticalAlign=top;spacingTop=-4;fontColor=#FF0000;" parent="1" vertex="1">
          <mxGeometry x="109" y="1267" width="40" height="20" as="geometry" />
        </mxCell>
        <mxCell id="Uu9AmT3nj6WKYAnCRlqI-379" value="&lt;font style=&quot;font-size: 36px&quot; color=&quot;#000000&quot;&gt;A&lt;/font&gt;" style="text;html=1;resizable=0;points=[];autosize=1;align=left;verticalAlign=top;spacingTop=-4;fontColor=#FF0000;" parent="1" vertex="1">
          <mxGeometry x="110" y="1354" width="40" height="20" as="geometry" />
        </mxCell>
        <mxCell id="Uu9AmT3nj6WKYAnCRlqI-367" value="&lt;font style=&quot;font-size: 48px&quot;&gt;=&lt;/font&gt;" style="text;html=1;resizable=0;points=[];autosize=1;align=left;verticalAlign=top;spacingTop=-4;" parent="1" vertex="1">
          <mxGeometry x="160" y="1259" width="40" height="30" as="geometry" />
        </mxCell>
        <mxCell id="Uu9AmT3nj6WKYAnCRlqI-368" value="&lt;font style=&quot;font-size: 36px&quot; color=&quot;#000000&quot;&gt;U&lt;/font&gt;" style="text;html=1;resizable=0;points=[];autosize=1;align=left;verticalAlign=top;spacingTop=-4;fontColor=#FF0000;" parent="1" vertex="1">
          <mxGeometry x="199.5" y="1267" width="40" height="20" as="geometry" />
        </mxCell>
        <mxCell id="Uu9AmT3nj6WKYAnCRlqI-388" value="&lt;font style=&quot;font-size: 36px&quot; color=&quot;#000000&quot;&gt;U&lt;/font&gt;" style="text;html=1;resizable=0;points=[];autosize=1;align=left;verticalAlign=top;spacingTop=-4;fontColor=#FF0000;" parent="1" vertex="1">
          <mxGeometry x="175.5" y="1357" width="40" height="20" as="geometry" />
        </mxCell>
        <mxCell id="Uu9AmT3nj6WKYAnCRlqI-369" value="&lt;font style=&quot;font-size: 36px&quot; color=&quot;#000000&quot;&gt;（&lt;/font&gt;" style="text;html=1;resizable=0;points=[];autosize=1;align=left;verticalAlign=top;spacingTop=-4;fontColor=#FF0000;" parent="1" vertex="1">
          <mxGeometry x="23" y="1269" width="50" height="20" as="geometry" />
        </mxCell>
        <mxCell id="Uu9AmT3nj6WKYAnCRlqI-371" value="&lt;font style=&quot;font-size: 36px&quot; color=&quot;#000000&quot;&gt;）&lt;/font&gt;" style="text;html=1;resizable=0;points=[];autosize=1;align=left;verticalAlign=top;spacingTop=-4;fontColor=#FF0000;" parent="1" vertex="1">
          <mxGeometry x="133" y="1268" width="50" height="20" as="geometry" />
        </mxCell>
        <mxCell id="Uu9AmT3nj6WKYAnCRlqI-372" value="" style="group" parent="1" vertex="1" connectable="0">
          <mxGeometry x="58.5" y="1269" width="64.5" height="38" as="geometry" />
        </mxCell>
        <mxCell id="Uu9AmT3nj6WKYAnCRlqI-361" value="&lt;font style=&quot;font-size: 36px&quot; color=&quot;#000000&quot;&gt;E&lt;/font&gt;" style="text;html=1;resizable=0;points=[];autosize=1;align=left;verticalAlign=top;spacingTop=-4;fontColor=#FF0000;" parent="Uu9AmT3nj6WKYAnCRlqI-372" vertex="1">
          <mxGeometry width="40" height="20" as="geometry" />
        </mxCell>
        <mxCell id="Uu9AmT3nj6WKYAnCRlqI-363" value="&lt;font style=&quot;font-size: 18px&quot; color=&quot;#000000&quot;&gt;32&lt;/font&gt;" style="text;html=1;resizable=0;points=[];autosize=1;align=left;verticalAlign=top;spacingTop=-4;fontColor=#FF0000;" parent="Uu9AmT3nj6WKYAnCRlqI-372" vertex="1">
          <mxGeometry x="24.5" y="18" width="40" height="20" as="geometry" />
        </mxCell>
        <mxCell id="Uu9AmT3nj6WKYAnCRlqI-373" value="&lt;font style=&quot;font-size: 18px&quot;&gt;已知：&lt;/font&gt;" style="text;html=1;resizable=0;points=[];autosize=1;align=left;verticalAlign=top;spacingTop=-4;fontColor=#FF0000;" parent="1" vertex="1">
          <mxGeometry x="-57" y="1275" width="70" height="20" as="geometry" />
        </mxCell>
        <mxCell id="Uu9AmT3nj6WKYAnCRlqI-374" value="&lt;b&gt;求解填空：&lt;/b&gt;" style="text;html=1;resizable=0;points=[];autosize=1;align=left;verticalAlign=top;spacingTop=-4;fontColor=#FF0000;" parent="1" vertex="1">
          <mxGeometry x="-56" y="1336" width="80" height="20" as="geometry" />
        </mxCell>
        <mxCell id="Uu9AmT3nj6WKYAnCRlqI-395" value="&lt;font style=&quot;font-size: 36px&quot;&gt;？&lt;/font&gt;" style="text;html=1;resizable=0;points=[];autosize=1;align=left;verticalAlign=top;spacingTop=-4;fontColor=#FF0000;" parent="1" vertex="1">
          <mxGeometry x="54" y="1356" width="50" height="20" as="geometry" />
        </mxCell>
        <mxCell id="Uu9AmT3nj6WKYAnCRlqI-397" value="根据乘法的结合律可以得到：" style="text;html=1;resizable=0;points=[];autosize=1;align=left;verticalAlign=top;spacingTop=-4;fontColor=#FF0000;" parent="1" vertex="1">
          <mxGeometry x="-74" y="1400" width="170" height="20" as="geometry" />
        </mxCell>
        <mxCell id="Uu9AmT3nj6WKYAnCRlqI-398" value="&lt;font style=&quot;font-size: 36px&quot; color=&quot;#000000&quot;&gt;E&lt;/font&gt;" style="text;html=1;resizable=0;points=[];autosize=1;align=left;verticalAlign=top;spacingTop=-4;fontColor=#FF0000;" parent="1" vertex="1">
          <mxGeometry x="-6" y="1423" width="40" height="20" as="geometry" />
        </mxCell>
        <mxCell id="Uu9AmT3nj6WKYAnCRlqI-399" value="&lt;font style=&quot;font-size: 18px&quot; color=&quot;#000000&quot;&gt;21&lt;/font&gt;" style="text;html=1;resizable=0;points=[];autosize=1;align=left;verticalAlign=top;spacingTop=-4;fontColor=#FF0000;" parent="1" vertex="1">
          <mxGeometry x="17" y="1441" width="40" height="20" as="geometry" />
        </mxCell>
        <mxCell id="Uu9AmT3nj6WKYAnCRlqI-400" value="&lt;font style=&quot;font-size: 36px&quot; color=&quot;#000000&quot;&gt;A&lt;/font&gt;" style="text;html=1;resizable=0;points=[];autosize=1;align=left;verticalAlign=top;spacingTop=-4;fontColor=#FF0000;" parent="1" vertex="1">
          <mxGeometry x="101" y="1421" width="40" height="20" as="geometry" />
        </mxCell>
        <mxCell id="Uu9AmT3nj6WKYAnCRlqI-401" value="&lt;font style=&quot;font-size: 36px&quot; color=&quot;#000000&quot;&gt;U&lt;/font&gt;" style="text;html=1;resizable=0;points=[];autosize=1;align=left;verticalAlign=top;spacingTop=-4;fontColor=#FF0000;" parent="1" vertex="1">
          <mxGeometry x="169.5" y="1420" width="40" height="20" as="geometry" />
        </mxCell>
        <mxCell id="Uu9AmT3nj6WKYAnCRlqI-402" value="&lt;font style=&quot;font-size: 36px&quot; color=&quot;#000000&quot;&gt;（&lt;/font&gt;" style="text;html=1;resizable=0;points=[];autosize=1;align=left;verticalAlign=top;spacingTop=-4;fontColor=#FF0000;" parent="1" vertex="1">
          <mxGeometry x="-42" y="1421" width="50" height="20" as="geometry" />
        </mxCell>
        <mxCell id="Uu9AmT3nj6WKYAnCRlqI-403" value="&lt;font style=&quot;font-size: 36px&quot; color=&quot;#000000&quot;&gt;）&lt;/font&gt;" style="text;html=1;resizable=0;points=[];autosize=1;align=left;verticalAlign=top;spacingTop=-4;fontColor=#FF0000;" parent="1" vertex="1">
          <mxGeometry x="91" y="1423" width="50" height="20" as="geometry" />
        </mxCell>
        <mxCell id="Uu9AmT3nj6WKYAnCRlqI-404" value="" style="group" parent="1" vertex="1" connectable="0">
          <mxGeometry x="41.5" y="1423" width="64.5" height="38" as="geometry" />
        </mxCell>
        <mxCell id="Uu9AmT3nj6WKYAnCRlqI-405" value="&lt;font style=&quot;font-size: 36px&quot; color=&quot;#000000&quot;&gt;E&lt;/font&gt;" style="text;html=1;resizable=0;points=[];autosize=1;align=left;verticalAlign=top;spacingTop=-4;fontColor=#FF0000;" parent="Uu9AmT3nj6WKYAnCRlqI-404" vertex="1">
          <mxGeometry width="40" height="20" as="geometry" />
        </mxCell>
        <mxCell id="Uu9AmT3nj6WKYAnCRlqI-406" value="&lt;font style=&quot;font-size: 18px&quot; color=&quot;#000000&quot;&gt;32&lt;/font&gt;" style="text;html=1;resizable=0;points=[];autosize=1;align=left;verticalAlign=top;spacingTop=-4;fontColor=#FF0000;" parent="Uu9AmT3nj6WKYAnCRlqI-404" vertex="1">
          <mxGeometry x="24.5" y="18" width="40" height="20" as="geometry" />
        </mxCell>
        <mxCell id="Uu9AmT3nj6WKYAnCRlqI-408" value="&lt;font style=&quot;font-size: 48px&quot;&gt;=&lt;/font&gt;" style="text;html=1;resizable=0;points=[];autosize=1;align=left;verticalAlign=top;spacingTop=-4;" parent="1" vertex="1">
          <mxGeometry x="131" y="1414" width="40" height="30" as="geometry" />
        </mxCell>
        <mxCell id="5kpThAuBkxTEuEjrMdxX-1" value="&lt;font style=&quot;font-size: 48px&quot;&gt;=&lt;/font&gt;" style="text;html=1;resizable=0;points=[];autosize=1;align=left;verticalAlign=top;spacingTop=-4;" parent="1" vertex="1">
          <mxGeometry x="239" y="597.5" width="40" height="30" as="geometry" />
        </mxCell>
        <mxCell id="5kpThAuBkxTEuEjrMdxX-3" value="&lt;font style=&quot;font-size: 48px&quot;&gt;=&lt;/font&gt;" style="text;html=1;resizable=0;points=[];autosize=1;align=left;verticalAlign=top;spacingTop=-4;" parent="1" vertex="1">
          <mxGeometry x="237" y="802" width="40" height="30" as="geometry" />
        </mxCell>
        <mxCell id="5kpThAuBkxTEuEjrMdxX-4" value="&lt;font style=&quot;font-size: 48px&quot;&gt;=&lt;/font&gt;" style="text;html=1;resizable=0;points=[];autosize=1;align=left;verticalAlign=top;spacingTop=-4;" parent="1" vertex="1">
          <mxGeometry x="236" y="947" width="40" height="30" as="geometry" />
        </mxCell>
        <mxCell id="J039G_M1f-D1EtfRBh9d-3" value="" style="rounded=1;whiteSpace=wrap;html=1;fillColor=#fff2cc;strokeColor=#d6b656;gradientColor=#ffd966;gradientDirection=north;" vertex="1" parent="1">
          <mxGeometry x="-5" y="-1100" width="240" height="123" as="geometry" />
        </mxCell>
        <mxCell id="J039G_M1f-D1EtfRBh9d-1" value="&lt;font style=&quot;font-size: 48px;&quot;&gt;$$e^{i\pi}=-1$$&amp;nbsp; &amp;nbsp;&lt;/font&gt;" style="text;html=1;align=center;verticalAlign=middle;resizable=0;points=[];autosize=1;strokeColor=none;fillColor=none;" vertex="1" parent="1">
          <mxGeometry x="-75" y="-1067" width="380" height="70" as="geometry" />
        </mxCell>
        <mxCell id="J039G_M1f-D1EtfRBh9d-4" value="" style="rounded=1;whiteSpace=wrap;html=1;fillColor=#dae8fc;gradientColor=#7ea6e0;strokeColor=#6c8ebf;" vertex="1" parent="1">
          <mxGeometry x="50" y="-1027" width="90" height="40" as="geometry" />
        </mxCell>
        <mxCell id="J039G_M1f-D1EtfRBh9d-5" value="" style="rounded=1;whiteSpace=wrap;html=1;fillColor=#f8cecc;gradientColor=#ea6b66;strokeColor=#b85450;" vertex="1" parent="1">
          <mxGeometry x="130" y="-1027" width="90" height="40" as="geometry" />
        </mxCell>
        <mxCell id="J039G_M1f-D1EtfRBh9d-6" value="&lt;b&gt;&lt;font style=&quot;font-size: 18px;&quot;&gt;一对一&lt;/font&gt;&lt;/b&gt;" style="text;html=1;align=center;verticalAlign=middle;resizable=0;points=[];autosize=1;strokeColor=none;fillColor=none;" vertex="1" parent="1">
          <mxGeometry x="50" y="-1023" width="80" height="40" as="geometry" />
        </mxCell>
        <mxCell id="J039G_M1f-D1EtfRBh9d-2" value="&lt;font style=&quot;font-size: 18px;&quot;&gt;&lt;b&gt;数学家教&lt;/b&gt;&lt;/font&gt;" style="text;html=1;align=center;verticalAlign=middle;resizable=0;points=[];autosize=1;strokeColor=none;fillColor=none;" vertex="1" parent="1">
          <mxGeometry x="130" y="-1025" width="100" height="40" as="geometry" />
        </mxCell>
        <mxCell id="J039G_M1f-D1EtfRBh9d-7" value="心理研究&lt;br&gt;（Chrome&amp;lt;浏览器&amp;gt;+ ChatGPT4）制作Chatbot&lt;br&gt;用户访问界面（开卷）" style="rounded=1;whiteSpace=wrap;html=1;fillColor=#fff2cc;strokeColor=#d6b656;gradientColor=#ffd966;gradientDirection=north;" vertex="1" parent="1">
          <mxGeometry x="-763" y="-951" width="363" height="50" as="geometry" />
        </mxCell>
        <mxCell id="J039G_M1f-D1EtfRBh9d-9" value="心理科研素材" style="rounded=1;whiteSpace=wrap;html=1;fillColor=#fff2cc;strokeColor=#d6b656;gradientColor=#ffd966;gradientDirection=north;" vertex="1" parent="1">
          <mxGeometry x="-539" y="-1120" width="126" height="40" as="geometry" />
        </mxCell>
        <mxCell id="J039G_M1f-D1EtfRBh9d-10" value="ChatGPT按照素材学习" style="rounded=1;whiteSpace=wrap;html=1;fillColor=#fff2cc;strokeColor=#d6b656;gradientColor=#ffd966;gradientDirection=north;" vertex="1" parent="1">
          <mxGeometry x="-346" y="-1060" width="160" height="40" as="geometry" />
        </mxCell>
        <mxCell id="J039G_M1f-D1EtfRBh9d-12" value="第一阶段（Chatbot）&lt;br&gt;开卷后的三轮问答（主题自由或随机）" style="rounded=1;whiteSpace=wrap;html=1;fillColor=#fff2cc;strokeColor=#d6b656;gradientColor=#ffd966;gradientDirection=north;" vertex="1" parent="1">
          <mxGeometry x="-763" y="-900" width="363" height="38" as="geometry" />
        </mxCell>
        <mxCell id="J039G_M1f-D1EtfRBh9d-13" value="第二阶段&lt;br&gt;给予受访者（&lt;b&gt;心理医生&lt;/b&gt;）推送消息" style="rounded=1;whiteSpace=wrap;html=1;fillColor=#fff2cc;strokeColor=#d6b656;gradientColor=#ffd966;gradientDirection=north;" vertex="1" parent="1">
          <mxGeometry x="-756" y="-800" width="350" height="40" as="geometry" />
        </mxCell>
        <mxCell id="J039G_M1f-D1EtfRBh9d-14" value="Chatbot问答后&lt;br&gt;根据心理研究素材生成结果" style="rounded=1;whiteSpace=wrap;html=1;fillColor=#fff2cc;strokeColor=#d6b656;gradientColor=#ffd966;gradientDirection=north;" vertex="1" parent="1">
          <mxGeometry x="-756" y="-855" width="350" height="50" as="geometry" />
        </mxCell>
        <mxCell id="J039G_M1f-D1EtfRBh9d-15" value="消息2（2、6、10）" style="rounded=1;whiteSpace=wrap;html=1;fillColor=#fff2cc;strokeColor=#d6b656;gradientColor=#ffd966;gradientDirection=north;" vertex="1" parent="1">
          <mxGeometry x="-636" y="-760" width="110" height="40" as="geometry" />
        </mxCell>
        <mxCell id="J039G_M1f-D1EtfRBh9d-16" value="消息3（2、6、10）" style="rounded=1;whiteSpace=wrap;html=1;fillColor=#fff2cc;strokeColor=#d6b656;gradientColor=#ffd966;gradientDirection=north;" vertex="1" parent="1">
          <mxGeometry x="-525" y="-760" width="119" height="40" as="geometry" />
        </mxCell>
        <mxCell id="J039G_M1f-D1EtfRBh9d-18" value="消息1（2、6、10）" style="rounded=1;whiteSpace=wrap;html=1;fillColor=#fff2cc;strokeColor=#d6b656;gradientColor=#ffd966;gradientDirection=north;" vertex="1" parent="1">
          <mxGeometry x="-756" y="-760" width="121" height="40" as="geometry" />
        </mxCell>
        <mxCell id="J039G_M1f-D1EtfRBh9d-20" value="&lt;b&gt;心理医生&lt;/b&gt;针对三组消息，&lt;b&gt;结合心理研究规定的内容&lt;/b&gt;做评估&lt;br&gt;（单选&lt;b&gt;评估确认&lt;/b&gt;、&lt;b&gt;评估打分&lt;/b&gt;）" style="text;html=1;align=center;verticalAlign=middle;resizable=0;points=[];autosize=1;strokeColor=none;fillColor=none;" vertex="1" parent="1">
          <mxGeometry x="-741" y="-721" width="320" height="40" as="geometry" />
        </mxCell>
        <mxCell id="J039G_M1f-D1EtfRBh9d-23" value="&lt;b&gt;心理学交叉研究项目需求理解&lt;/b&gt;" style="text;html=1;align=center;verticalAlign=middle;resizable=0;points=[];autosize=1;strokeColor=none;fillColor=none;" vertex="1" parent="1">
          <mxGeometry x="-671.5" y="-981" width="180" height="30" as="geometry" />
        </mxCell>
        <mxCell id="J039G_M1f-D1EtfRBh9d-24" value="&lt;font color=&quot;#ffffff&quot;&gt;+&lt;/font&gt;" style="ellipse;whiteSpace=wrap;html=1;aspect=fixed;fillColor=#99004D;" vertex="1" parent="1">
          <mxGeometry x="-770" y="-527" width="16" height="16" as="geometry" />
        </mxCell>
        <mxCell id="J039G_M1f-D1EtfRBh9d-25" value="&lt;font color=&quot;#ffffff&quot;&gt;+&lt;/font&gt;" style="ellipse;whiteSpace=wrap;html=1;aspect=fixed;fillColor=#99004D;" vertex="1" parent="1">
          <mxGeometry x="-728" y="-527" width="16" height="16" as="geometry" />
        </mxCell>
        <mxCell id="J039G_M1f-D1EtfRBh9d-26" value="&lt;font color=&quot;#ffffff&quot;&gt;+&lt;/font&gt;" style="ellipse;whiteSpace=wrap;html=1;aspect=fixed;fillColor=#99004D;" vertex="1" parent="1">
          <mxGeometry x="-690" y="-527" width="16" height="16" as="geometry" />
        </mxCell>
        <mxCell id="J039G_M1f-D1EtfRBh9d-28" value="&lt;font color=&quot;#ffffff&quot;&gt;+&lt;/font&gt;" style="ellipse;whiteSpace=wrap;html=1;aspect=fixed;fillColor=#99004D;" vertex="1" parent="1">
          <mxGeometry x="-652" y="-527" width="16" height="16" as="geometry" />
        </mxCell>
        <mxCell id="J039G_M1f-D1EtfRBh9d-29" value="&lt;font color=&quot;#ffffff&quot;&gt;+&lt;/font&gt;" style="ellipse;whiteSpace=wrap;html=1;aspect=fixed;fillColor=#99004D;" vertex="1" parent="1">
          <mxGeometry x="-610" y="-527" width="16" height="16" as="geometry" />
        </mxCell>
        <mxCell id="J039G_M1f-D1EtfRBh9d-30" value="&lt;font color=&quot;#ffffff&quot;&gt;+&lt;/font&gt;" style="ellipse;whiteSpace=wrap;html=1;aspect=fixed;fillColor=#99004D;" vertex="1" parent="1">
          <mxGeometry x="-572" y="-527" width="16" height="16" as="geometry" />
        </mxCell>
        <mxCell id="J039G_M1f-D1EtfRBh9d-31" value="&lt;font color=&quot;#ffffff&quot;&gt;+&lt;/font&gt;" style="ellipse;whiteSpace=wrap;html=1;aspect=fixed;fillColor=#99004D;" vertex="1" parent="1">
          <mxGeometry x="-530" y="-526" width="16" height="16" as="geometry" />
        </mxCell>
        <mxCell id="J039G_M1f-D1EtfRBh9d-32" value="&lt;font color=&quot;#ffffff&quot;&gt;+&lt;/font&gt;" style="ellipse;whiteSpace=wrap;html=1;aspect=fixed;fillColor=#99004D;" vertex="1" parent="1">
          <mxGeometry x="-488" y="-526" width="16" height="16" as="geometry" />
        </mxCell>
        <mxCell id="J039G_M1f-D1EtfRBh9d-33" value="&lt;font color=&quot;#ffffff&quot;&gt;+&lt;/font&gt;" style="ellipse;whiteSpace=wrap;html=1;aspect=fixed;fillColor=#99004D;" vertex="1" parent="1">
          <mxGeometry x="-450" y="-526" width="16" height="16" as="geometry" />
        </mxCell>
        <mxCell id="J039G_M1f-D1EtfRBh9d-34" value="&lt;font color=&quot;#ffffff&quot;&gt;+&lt;/font&gt;" style="ellipse;whiteSpace=wrap;html=1;aspect=fixed;fillColor=#99004D;" vertex="1" parent="1">
          <mxGeometry x="-412" y="-526" width="16" height="16" as="geometry" />
        </mxCell>
        <mxCell id="J039G_M1f-D1EtfRBh9d-35" value="&lt;font color=&quot;#ffffff&quot;&gt;+&lt;/font&gt;" style="ellipse;whiteSpace=wrap;html=1;aspect=fixed;fillColor=#99004D;" vertex="1" parent="1">
          <mxGeometry x="-370" y="-526" width="16" height="16" as="geometry" />
        </mxCell>
        <mxCell id="J039G_M1f-D1EtfRBh9d-36" value="&lt;font color=&quot;#ffffff&quot;&gt;+&lt;/font&gt;" style="ellipse;whiteSpace=wrap;html=1;aspect=fixed;fillColor=#99004D;" vertex="1" parent="1">
          <mxGeometry x="-332" y="-526" width="16" height="16" as="geometry" />
        </mxCell>
        <mxCell id="J039G_M1f-D1EtfRBh9d-37" value="&lt;font color=&quot;#ffffff&quot;&gt;+&lt;/font&gt;" style="ellipse;whiteSpace=wrap;html=1;aspect=fixed;fillColor=#99004D;" vertex="1" parent="1">
          <mxGeometry x="-768" y="-487" width="16" height="16" as="geometry" />
        </mxCell>
        <mxCell id="J039G_M1f-D1EtfRBh9d-38" value="&lt;font color=&quot;#ffffff&quot;&gt;+&lt;/font&gt;" style="ellipse;whiteSpace=wrap;html=1;aspect=fixed;fillColor=#99004D;" vertex="1" parent="1">
          <mxGeometry x="-726" y="-487" width="16" height="16" as="geometry" />
        </mxCell>
        <mxCell id="J039G_M1f-D1EtfRBh9d-39" value="&lt;font color=&quot;#ffffff&quot;&gt;+&lt;/font&gt;" style="ellipse;whiteSpace=wrap;html=1;aspect=fixed;fillColor=#99004D;" vertex="1" parent="1">
          <mxGeometry x="-688" y="-487" width="16" height="16" as="geometry" />
        </mxCell>
        <mxCell id="J039G_M1f-D1EtfRBh9d-40" value="&lt;font color=&quot;#ffffff&quot;&gt;+&lt;/font&gt;" style="ellipse;whiteSpace=wrap;html=1;aspect=fixed;fillColor=#99004D;" vertex="1" parent="1">
          <mxGeometry x="-650" y="-487" width="16" height="16" as="geometry" />
        </mxCell>
        <mxCell id="J039G_M1f-D1EtfRBh9d-41" value="&lt;font color=&quot;#ffffff&quot;&gt;+&lt;/font&gt;" style="ellipse;whiteSpace=wrap;html=1;aspect=fixed;fillColor=#99004D;" vertex="1" parent="1">
          <mxGeometry x="-608" y="-487" width="16" height="16" as="geometry" />
        </mxCell>
        <mxCell id="J039G_M1f-D1EtfRBh9d-42" value="&lt;font color=&quot;#ffffff&quot;&gt;+&lt;/font&gt;" style="ellipse;whiteSpace=wrap;html=1;aspect=fixed;fillColor=#99004D;" vertex="1" parent="1">
          <mxGeometry x="-570" y="-487" width="16" height="16" as="geometry" />
        </mxCell>
        <mxCell id="J039G_M1f-D1EtfRBh9d-43" value="&lt;font color=&quot;#ffffff&quot;&gt;+&lt;/font&gt;" style="ellipse;whiteSpace=wrap;html=1;aspect=fixed;fillColor=#99004D;" vertex="1" parent="1">
          <mxGeometry x="-528" y="-486" width="16" height="16" as="geometry" />
        </mxCell>
        <mxCell id="J039G_M1f-D1EtfRBh9d-44" value="&lt;font color=&quot;#ffffff&quot;&gt;+&lt;/font&gt;" style="ellipse;whiteSpace=wrap;html=1;aspect=fixed;fillColor=#99004D;" vertex="1" parent="1">
          <mxGeometry x="-486" y="-486" width="16" height="16" as="geometry" />
        </mxCell>
        <mxCell id="J039G_M1f-D1EtfRBh9d-45" value="&lt;font color=&quot;#ffffff&quot;&gt;+&lt;/font&gt;" style="ellipse;whiteSpace=wrap;html=1;aspect=fixed;fillColor=#99004D;" vertex="1" parent="1">
          <mxGeometry x="-448" y="-486" width="16" height="16" as="geometry" />
        </mxCell>
        <mxCell id="J039G_M1f-D1EtfRBh9d-46" value="&lt;font color=&quot;#ffffff&quot;&gt;+&lt;/font&gt;" style="ellipse;whiteSpace=wrap;html=1;aspect=fixed;fillColor=#99004D;" vertex="1" parent="1">
          <mxGeometry x="-410" y="-486" width="16" height="16" as="geometry" />
        </mxCell>
        <mxCell id="J039G_M1f-D1EtfRBh9d-47" value="&lt;font color=&quot;#ffffff&quot;&gt;+&lt;/font&gt;" style="ellipse;whiteSpace=wrap;html=1;aspect=fixed;fillColor=#99004D;" vertex="1" parent="1">
          <mxGeometry x="-368" y="-486" width="16" height="16" as="geometry" />
        </mxCell>
        <mxCell id="J039G_M1f-D1EtfRBh9d-48" value="&lt;font color=&quot;#ffffff&quot;&gt;+&lt;/font&gt;" style="ellipse;whiteSpace=wrap;html=1;aspect=fixed;fillColor=#99004D;" vertex="1" parent="1">
          <mxGeometry x="-330" y="-486" width="16" height="16" as="geometry" />
        </mxCell>
        <mxCell id="J039G_M1f-D1EtfRBh9d-49" value="&lt;font color=&quot;#ffffff&quot;&gt;+&lt;/font&gt;" style="ellipse;whiteSpace=wrap;html=1;aspect=fixed;fillColor=#99004D;" vertex="1" parent="1">
          <mxGeometry x="-766" y="-448" width="16" height="16" as="geometry" />
        </mxCell>
        <mxCell id="J039G_M1f-D1EtfRBh9d-50" value="&lt;font color=&quot;#ffffff&quot;&gt;+&lt;/font&gt;" style="ellipse;whiteSpace=wrap;html=1;aspect=fixed;fillColor=#99004D;" vertex="1" parent="1">
          <mxGeometry x="-724" y="-448" width="16" height="16" as="geometry" />
        </mxCell>
        <mxCell id="J039G_M1f-D1EtfRBh9d-51" value="&lt;font color=&quot;#ffffff&quot;&gt;+&lt;/font&gt;" style="ellipse;whiteSpace=wrap;html=1;aspect=fixed;fillColor=#99004D;" vertex="1" parent="1">
          <mxGeometry x="-686" y="-448" width="16" height="16" as="geometry" />
        </mxCell>
        <mxCell id="J039G_M1f-D1EtfRBh9d-52" value="&lt;font color=&quot;#ffffff&quot;&gt;+&lt;/font&gt;" style="ellipse;whiteSpace=wrap;html=1;aspect=fixed;fillColor=#99004D;" vertex="1" parent="1">
          <mxGeometry x="-648" y="-448" width="16" height="16" as="geometry" />
        </mxCell>
        <mxCell id="J039G_M1f-D1EtfRBh9d-53" value="&lt;font color=&quot;#ffffff&quot;&gt;+&lt;/font&gt;" style="ellipse;whiteSpace=wrap;html=1;aspect=fixed;fillColor=#99004D;" vertex="1" parent="1">
          <mxGeometry x="-606" y="-448" width="16" height="16" as="geometry" />
        </mxCell>
        <mxCell id="J039G_M1f-D1EtfRBh9d-54" value="&lt;font color=&quot;#ffffff&quot;&gt;+&lt;/font&gt;" style="ellipse;whiteSpace=wrap;html=1;aspect=fixed;fillColor=#99004D;" vertex="1" parent="1">
          <mxGeometry x="-568" y="-448" width="16" height="16" as="geometry" />
        </mxCell>
        <mxCell id="J039G_M1f-D1EtfRBh9d-55" value="&lt;font color=&quot;#ffffff&quot;&gt;+&lt;/font&gt;" style="ellipse;whiteSpace=wrap;html=1;aspect=fixed;fillColor=#99004D;" vertex="1" parent="1">
          <mxGeometry x="-526" y="-447" width="16" height="16" as="geometry" />
        </mxCell>
        <mxCell id="J039G_M1f-D1EtfRBh9d-56" value="&lt;font color=&quot;#ffffff&quot;&gt;+&lt;/font&gt;" style="ellipse;whiteSpace=wrap;html=1;aspect=fixed;fillColor=#99004D;" vertex="1" parent="1">
          <mxGeometry x="-484" y="-447" width="16" height="16" as="geometry" />
        </mxCell>
        <mxCell id="J039G_M1f-D1EtfRBh9d-57" value="&lt;font color=&quot;#ffffff&quot;&gt;+&lt;/font&gt;" style="ellipse;whiteSpace=wrap;html=1;aspect=fixed;fillColor=#99004D;" vertex="1" parent="1">
          <mxGeometry x="-446" y="-447" width="16" height="16" as="geometry" />
        </mxCell>
        <mxCell id="J039G_M1f-D1EtfRBh9d-58" value="&lt;font color=&quot;#ffffff&quot;&gt;+&lt;/font&gt;" style="ellipse;whiteSpace=wrap;html=1;aspect=fixed;fillColor=#99004D;" vertex="1" parent="1">
          <mxGeometry x="-408" y="-447" width="16" height="16" as="geometry" />
        </mxCell>
        <mxCell id="J039G_M1f-D1EtfRBh9d-59" value="&lt;font color=&quot;#ffffff&quot;&gt;+&lt;/font&gt;" style="ellipse;whiteSpace=wrap;html=1;aspect=fixed;fillColor=#99004D;" vertex="1" parent="1">
          <mxGeometry x="-366" y="-447" width="16" height="16" as="geometry" />
        </mxCell>
        <mxCell id="J039G_M1f-D1EtfRBh9d-60" value="&lt;font color=&quot;#ffffff&quot;&gt;+&lt;/font&gt;" style="ellipse;whiteSpace=wrap;html=1;aspect=fixed;fillColor=#99004D;" vertex="1" parent="1">
          <mxGeometry x="-328" y="-447" width="16" height="16" as="geometry" />
        </mxCell>
        <mxCell id="J039G_M1f-D1EtfRBh9d-61" value="&lt;font color=&quot;#ffffff&quot;&gt;+&lt;/font&gt;" style="ellipse;whiteSpace=wrap;html=1;aspect=fixed;fillColor=#99004D;" vertex="1" parent="1">
          <mxGeometry x="-765" y="-407" width="16" height="16" as="geometry" />
        </mxCell>
        <mxCell id="J039G_M1f-D1EtfRBh9d-62" value="&lt;font color=&quot;#ffffff&quot;&gt;+&lt;/font&gt;" style="ellipse;whiteSpace=wrap;html=1;aspect=fixed;fillColor=#99004D;" vertex="1" parent="1">
          <mxGeometry x="-723" y="-407" width="16" height="16" as="geometry" />
        </mxCell>
        <mxCell id="J039G_M1f-D1EtfRBh9d-63" value="&lt;font color=&quot;#ffffff&quot;&gt;+&lt;/font&gt;" style="ellipse;whiteSpace=wrap;html=1;aspect=fixed;fillColor=#99004D;" vertex="1" parent="1">
          <mxGeometry x="-685" y="-407" width="16" height="16" as="geometry" />
        </mxCell>
        <mxCell id="J039G_M1f-D1EtfRBh9d-64" value="&lt;font color=&quot;#ffffff&quot;&gt;+&lt;/font&gt;" style="ellipse;whiteSpace=wrap;html=1;aspect=fixed;fillColor=#99004D;" vertex="1" parent="1">
          <mxGeometry x="-647" y="-407" width="16" height="16" as="geometry" />
        </mxCell>
        <mxCell id="J039G_M1f-D1EtfRBh9d-65" value="&lt;font color=&quot;#ffffff&quot;&gt;+&lt;/font&gt;" style="ellipse;whiteSpace=wrap;html=1;aspect=fixed;fillColor=#99004D;" vertex="1" parent="1">
          <mxGeometry x="-605" y="-407" width="16" height="16" as="geometry" />
        </mxCell>
        <mxCell id="J039G_M1f-D1EtfRBh9d-66" value="&lt;font color=&quot;#ffffff&quot;&gt;+&lt;/font&gt;" style="ellipse;whiteSpace=wrap;html=1;aspect=fixed;fillColor=#99004D;" vertex="1" parent="1">
          <mxGeometry x="-567" y="-407" width="16" height="16" as="geometry" />
        </mxCell>
        <mxCell id="J039G_M1f-D1EtfRBh9d-67" value="&lt;font color=&quot;#ffffff&quot;&gt;+&lt;/font&gt;" style="ellipse;whiteSpace=wrap;html=1;aspect=fixed;fillColor=#99004D;" vertex="1" parent="1">
          <mxGeometry x="-525" y="-406" width="16" height="16" as="geometry" />
        </mxCell>
        <mxCell id="J039G_M1f-D1EtfRBh9d-68" value="&lt;font color=&quot;#ffffff&quot;&gt;+&lt;/font&gt;" style="ellipse;whiteSpace=wrap;html=1;aspect=fixed;fillColor=#99004D;" vertex="1" parent="1">
          <mxGeometry x="-483" y="-406" width="16" height="16" as="geometry" />
        </mxCell>
        <mxCell id="J039G_M1f-D1EtfRBh9d-69" value="&lt;font color=&quot;#ffffff&quot;&gt;+&lt;/font&gt;" style="ellipse;whiteSpace=wrap;html=1;aspect=fixed;fillColor=#99004D;" vertex="1" parent="1">
          <mxGeometry x="-445" y="-406" width="16" height="16" as="geometry" />
        </mxCell>
        <mxCell id="J039G_M1f-D1EtfRBh9d-70" value="&lt;font color=&quot;#ffffff&quot;&gt;+&lt;/font&gt;" style="ellipse;whiteSpace=wrap;html=1;aspect=fixed;fillColor=#99004D;" vertex="1" parent="1">
          <mxGeometry x="-407" y="-406" width="16" height="16" as="geometry" />
        </mxCell>
        <mxCell id="J039G_M1f-D1EtfRBh9d-71" value="&lt;font color=&quot;#ffffff&quot;&gt;+&lt;/font&gt;" style="ellipse;whiteSpace=wrap;html=1;aspect=fixed;fillColor=#99004D;" vertex="1" parent="1">
          <mxGeometry x="-365" y="-406" width="16" height="16" as="geometry" />
        </mxCell>
        <mxCell id="J039G_M1f-D1EtfRBh9d-72" value="&lt;font color=&quot;#ffffff&quot;&gt;+&lt;/font&gt;" style="ellipse;whiteSpace=wrap;html=1;aspect=fixed;fillColor=#99004D;" vertex="1" parent="1">
          <mxGeometry x="-327" y="-406" width="16" height="16" as="geometry" />
        </mxCell>
        <mxCell id="J039G_M1f-D1EtfRBh9d-73" value="&lt;font color=&quot;#ffffff&quot;&gt;+&lt;/font&gt;" style="ellipse;whiteSpace=wrap;html=1;aspect=fixed;fillColor=#99004D;" vertex="1" parent="1">
          <mxGeometry x="-768" y="-365" width="16" height="16" as="geometry" />
        </mxCell>
        <mxCell id="J039G_M1f-D1EtfRBh9d-74" value="&lt;font color=&quot;#ffffff&quot;&gt;+&lt;/font&gt;" style="ellipse;whiteSpace=wrap;html=1;aspect=fixed;fillColor=#99004D;" vertex="1" parent="1">
          <mxGeometry x="-726" y="-365" width="16" height="16" as="geometry" />
        </mxCell>
        <mxCell id="J039G_M1f-D1EtfRBh9d-75" value="&lt;font color=&quot;#ffffff&quot;&gt;+&lt;/font&gt;" style="ellipse;whiteSpace=wrap;html=1;aspect=fixed;fillColor=#99004D;" vertex="1" parent="1">
          <mxGeometry x="-688" y="-365" width="16" height="16" as="geometry" />
        </mxCell>
        <mxCell id="J039G_M1f-D1EtfRBh9d-76" value="&lt;font color=&quot;#ffffff&quot;&gt;+&lt;/font&gt;" style="ellipse;whiteSpace=wrap;html=1;aspect=fixed;fillColor=#99004D;" vertex="1" parent="1">
          <mxGeometry x="-650" y="-365" width="16" height="16" as="geometry" />
        </mxCell>
        <mxCell id="J039G_M1f-D1EtfRBh9d-77" value="&lt;font color=&quot;#ffffff&quot;&gt;+&lt;/font&gt;" style="ellipse;whiteSpace=wrap;html=1;aspect=fixed;fillColor=#99004D;" vertex="1" parent="1">
          <mxGeometry x="-608" y="-365" width="16" height="16" as="geometry" />
        </mxCell>
        <mxCell id="J039G_M1f-D1EtfRBh9d-78" value="&lt;font color=&quot;#ffffff&quot;&gt;+&lt;/font&gt;" style="ellipse;whiteSpace=wrap;html=1;aspect=fixed;fillColor=#99004D;" vertex="1" parent="1">
          <mxGeometry x="-570" y="-365" width="16" height="16" as="geometry" />
        </mxCell>
        <mxCell id="J039G_M1f-D1EtfRBh9d-79" value="&lt;font color=&quot;#ffffff&quot;&gt;+&lt;/font&gt;" style="ellipse;whiteSpace=wrap;html=1;aspect=fixed;fillColor=#99004D;" vertex="1" parent="1">
          <mxGeometry x="-528" y="-364" width="16" height="16" as="geometry" />
        </mxCell>
        <mxCell id="J039G_M1f-D1EtfRBh9d-80" value="&lt;font color=&quot;#ffffff&quot;&gt;+&lt;/font&gt;" style="ellipse;whiteSpace=wrap;html=1;aspect=fixed;fillColor=#99004D;" vertex="1" parent="1">
          <mxGeometry x="-486" y="-364" width="16" height="16" as="geometry" />
        </mxCell>
        <mxCell id="J039G_M1f-D1EtfRBh9d-81" value="&lt;font color=&quot;#ffffff&quot;&gt;+&lt;/font&gt;" style="ellipse;whiteSpace=wrap;html=1;aspect=fixed;fillColor=#99004D;" vertex="1" parent="1">
          <mxGeometry x="-448" y="-364" width="16" height="16" as="geometry" />
        </mxCell>
        <mxCell id="J039G_M1f-D1EtfRBh9d-82" value="&lt;font color=&quot;#ffffff&quot;&gt;+&lt;/font&gt;" style="ellipse;whiteSpace=wrap;html=1;aspect=fixed;fillColor=#99004D;" vertex="1" parent="1">
          <mxGeometry x="-410" y="-364" width="16" height="16" as="geometry" />
        </mxCell>
        <mxCell id="J039G_M1f-D1EtfRBh9d-83" value="&lt;font color=&quot;#ffffff&quot;&gt;+&lt;/font&gt;" style="ellipse;whiteSpace=wrap;html=1;aspect=fixed;fillColor=#99004D;" vertex="1" parent="1">
          <mxGeometry x="-368" y="-364" width="16" height="16" as="geometry" />
        </mxCell>
        <mxCell id="J039G_M1f-D1EtfRBh9d-84" value="&lt;font color=&quot;#ffffff&quot;&gt;+&lt;/font&gt;" style="ellipse;whiteSpace=wrap;html=1;aspect=fixed;fillColor=#99004D;" vertex="1" parent="1">
          <mxGeometry x="-330" y="-364" width="16" height="16" as="geometry" />
        </mxCell>
        <mxCell id="J039G_M1f-D1EtfRBh9d-85" value="&lt;font color=&quot;#ffffff&quot;&gt;-&lt;/font&gt;" style="ellipse;whiteSpace=wrap;html=1;aspect=fixed;fillColor=#3333FF;" vertex="1" parent="1">
          <mxGeometry x="-703" y="-418" width="10" height="10" as="geometry" />
        </mxCell>
        <mxCell id="J039G_M1f-D1EtfRBh9d-86" value="&lt;font color=&quot;#ffffff&quot;&gt;-&lt;/font&gt;" style="ellipse;whiteSpace=wrap;html=1;aspect=fixed;fillColor=#3333FF;" vertex="1" parent="1">
          <mxGeometry x="-659" y="-418" width="10" height="10" as="geometry" />
        </mxCell>
        <mxCell id="J039G_M1f-D1EtfRBh9d-88" value="&lt;font color=&quot;#ffffff&quot;&gt;-&lt;/font&gt;" style="ellipse;whiteSpace=wrap;html=1;aspect=fixed;fillColor=#3333FF;" vertex="1" parent="1">
          <mxGeometry x="-620" y="-418" width="10" height="10" as="geometry" />
        </mxCell>
        <mxCell id="J039G_M1f-D1EtfRBh9d-89" value="&lt;font color=&quot;#ffffff&quot;&gt;-&lt;/font&gt;" style="ellipse;whiteSpace=wrap;html=1;aspect=fixed;fillColor=#3333FF;" vertex="1" parent="1">
          <mxGeometry x="-576" y="-418" width="10" height="10" as="geometry" />
        </mxCell>
        <mxCell id="J039G_M1f-D1EtfRBh9d-90" value="&lt;font color=&quot;#ffffff&quot;&gt;-&lt;/font&gt;" style="ellipse;whiteSpace=wrap;html=1;aspect=fixed;fillColor=#3333FF;" vertex="1" parent="1">
          <mxGeometry x="-541" y="-418" width="10" height="10" as="geometry" />
        </mxCell>
        <mxCell id="J039G_M1f-D1EtfRBh9d-91" value="&lt;font color=&quot;#ffffff&quot;&gt;-&lt;/font&gt;" style="ellipse;whiteSpace=wrap;html=1;aspect=fixed;fillColor=#3333FF;" vertex="1" parent="1">
          <mxGeometry x="-497" y="-418" width="10" height="10" as="geometry" />
        </mxCell>
        <mxCell id="J039G_M1f-D1EtfRBh9d-92" value="&lt;font color=&quot;#ffffff&quot;&gt;-&lt;/font&gt;" style="ellipse;whiteSpace=wrap;html=1;aspect=fixed;fillColor=#3333FF;" vertex="1" parent="1">
          <mxGeometry x="-458" y="-418" width="10" height="10" as="geometry" />
        </mxCell>
        <mxCell id="J039G_M1f-D1EtfRBh9d-93" value="&lt;font color=&quot;#ffffff&quot;&gt;-&lt;/font&gt;" style="ellipse;whiteSpace=wrap;html=1;aspect=fixed;fillColor=#3333FF;" vertex="1" parent="1">
          <mxGeometry x="-414" y="-418" width="10" height="10" as="geometry" />
        </mxCell>
        <mxCell id="J039G_M1f-D1EtfRBh9d-94" value="&lt;font color=&quot;#ffffff&quot;&gt;-&lt;/font&gt;" style="ellipse;whiteSpace=wrap;html=1;aspect=fixed;fillColor=#3333FF;" vertex="1" parent="1">
          <mxGeometry x="-703" y="-380" width="10" height="10" as="geometry" />
        </mxCell>
        <mxCell id="J039G_M1f-D1EtfRBh9d-95" value="&lt;font color=&quot;#ffffff&quot;&gt;-&lt;/font&gt;" style="ellipse;whiteSpace=wrap;html=1;aspect=fixed;fillColor=#3333FF;" vertex="1" parent="1">
          <mxGeometry x="-659" y="-380" width="10" height="10" as="geometry" />
        </mxCell>
        <mxCell id="J039G_M1f-D1EtfRBh9d-96" value="&lt;font color=&quot;#ffffff&quot;&gt;-&lt;/font&gt;" style="ellipse;whiteSpace=wrap;html=1;aspect=fixed;fillColor=#3333FF;" vertex="1" parent="1">
          <mxGeometry x="-620" y="-380" width="10" height="10" as="geometry" />
        </mxCell>
        <mxCell id="J039G_M1f-D1EtfRBh9d-97" value="&lt;font color=&quot;#ffffff&quot;&gt;-&lt;/font&gt;" style="ellipse;whiteSpace=wrap;html=1;aspect=fixed;fillColor=#3333FF;" vertex="1" parent="1">
          <mxGeometry x="-576" y="-380" width="10" height="10" as="geometry" />
        </mxCell>
        <mxCell id="J039G_M1f-D1EtfRBh9d-98" value="&lt;font color=&quot;#ffffff&quot;&gt;-&lt;/font&gt;" style="ellipse;whiteSpace=wrap;html=1;aspect=fixed;fillColor=#3333FF;" vertex="1" parent="1">
          <mxGeometry x="-541" y="-380" width="10" height="10" as="geometry" />
        </mxCell>
        <mxCell id="J039G_M1f-D1EtfRBh9d-99" value="&lt;font color=&quot;#ffffff&quot;&gt;-&lt;/font&gt;" style="ellipse;whiteSpace=wrap;html=1;aspect=fixed;fillColor=#3333FF;" vertex="1" parent="1">
          <mxGeometry x="-497" y="-380" width="10" height="10" as="geometry" />
        </mxCell>
        <mxCell id="J039G_M1f-D1EtfRBh9d-100" value="&lt;font color=&quot;#ffffff&quot;&gt;-&lt;/font&gt;" style="ellipse;whiteSpace=wrap;html=1;aspect=fixed;fillColor=#3333FF;" vertex="1" parent="1">
          <mxGeometry x="-458" y="-380" width="10" height="10" as="geometry" />
        </mxCell>
        <mxCell id="J039G_M1f-D1EtfRBh9d-101" value="&lt;font color=&quot;#ffffff&quot;&gt;-&lt;/font&gt;" style="ellipse;whiteSpace=wrap;html=1;aspect=fixed;fillColor=#3333FF;" vertex="1" parent="1">
          <mxGeometry x="-414" y="-380" width="10" height="10" as="geometry" />
        </mxCell>
        <mxCell id="J039G_M1f-D1EtfRBh9d-102" value="&lt;font color=&quot;#ffffff&quot;&gt;-&lt;/font&gt;" style="ellipse;whiteSpace=wrap;html=1;aspect=fixed;fillColor=#3333FF;" vertex="1" parent="1">
          <mxGeometry x="-704" y="-504" width="10" height="10" as="geometry" />
        </mxCell>
        <mxCell id="J039G_M1f-D1EtfRBh9d-103" value="&lt;font color=&quot;#ffffff&quot;&gt;-&lt;/font&gt;" style="ellipse;whiteSpace=wrap;html=1;aspect=fixed;fillColor=#3333FF;" vertex="1" parent="1">
          <mxGeometry x="-660" y="-504" width="10" height="10" as="geometry" />
        </mxCell>
        <mxCell id="J039G_M1f-D1EtfRBh9d-104" value="&lt;font color=&quot;#ffffff&quot;&gt;-&lt;/font&gt;" style="ellipse;whiteSpace=wrap;html=1;aspect=fixed;fillColor=#3333FF;" vertex="1" parent="1">
          <mxGeometry x="-621" y="-504" width="10" height="10" as="geometry" />
        </mxCell>
        <mxCell id="J039G_M1f-D1EtfRBh9d-105" value="&lt;font color=&quot;#ffffff&quot;&gt;-&lt;/font&gt;" style="ellipse;whiteSpace=wrap;html=1;aspect=fixed;fillColor=#3333FF;" vertex="1" parent="1">
          <mxGeometry x="-577" y="-504" width="10" height="10" as="geometry" />
        </mxCell>
        <mxCell id="J039G_M1f-D1EtfRBh9d-106" value="&lt;font color=&quot;#ffffff&quot;&gt;-&lt;/font&gt;" style="ellipse;whiteSpace=wrap;html=1;aspect=fixed;fillColor=#3333FF;" vertex="1" parent="1">
          <mxGeometry x="-542" y="-504" width="10" height="10" as="geometry" />
        </mxCell>
        <mxCell id="J039G_M1f-D1EtfRBh9d-107" value="&lt;font color=&quot;#ffffff&quot;&gt;-&lt;/font&gt;" style="ellipse;whiteSpace=wrap;html=1;aspect=fixed;fillColor=#3333FF;" vertex="1" parent="1">
          <mxGeometry x="-498" y="-504" width="10" height="10" as="geometry" />
        </mxCell>
        <mxCell id="J039G_M1f-D1EtfRBh9d-108" value="&lt;font color=&quot;#ffffff&quot;&gt;-&lt;/font&gt;" style="ellipse;whiteSpace=wrap;html=1;aspect=fixed;fillColor=#3333FF;" vertex="1" parent="1">
          <mxGeometry x="-459" y="-504" width="10" height="10" as="geometry" />
        </mxCell>
        <mxCell id="J039G_M1f-D1EtfRBh9d-109" value="&lt;font color=&quot;#ffffff&quot;&gt;-&lt;/font&gt;" style="ellipse;whiteSpace=wrap;html=1;aspect=fixed;fillColor=#3333FF;" vertex="1" parent="1">
          <mxGeometry x="-415" y="-504" width="10" height="10" as="geometry" />
        </mxCell>
        <mxCell id="J039G_M1f-D1EtfRBh9d-110" value="&lt;font color=&quot;#ffffff&quot;&gt;-&lt;/font&gt;" style="ellipse;whiteSpace=wrap;html=1;aspect=fixed;fillColor=#3333FF;" vertex="1" parent="1">
          <mxGeometry x="-704" y="-466" width="10" height="10" as="geometry" />
        </mxCell>
        <mxCell id="J039G_M1f-D1EtfRBh9d-111" value="&lt;font color=&quot;#ffffff&quot;&gt;-&lt;/font&gt;" style="ellipse;whiteSpace=wrap;html=1;aspect=fixed;fillColor=#3333FF;" vertex="1" parent="1">
          <mxGeometry x="-660" y="-466" width="10" height="10" as="geometry" />
        </mxCell>
        <mxCell id="J039G_M1f-D1EtfRBh9d-112" value="&lt;font color=&quot;#ffffff&quot;&gt;-&lt;/font&gt;" style="ellipse;whiteSpace=wrap;html=1;aspect=fixed;fillColor=#3333FF;" vertex="1" parent="1">
          <mxGeometry x="-621" y="-466" width="10" height="10" as="geometry" />
        </mxCell>
        <mxCell id="J039G_M1f-D1EtfRBh9d-113" value="&lt;font color=&quot;#ffffff&quot;&gt;-&lt;/font&gt;" style="ellipse;whiteSpace=wrap;html=1;aspect=fixed;fillColor=#3333FF;" vertex="1" parent="1">
          <mxGeometry x="-577" y="-466" width="10" height="10" as="geometry" />
        </mxCell>
        <mxCell id="J039G_M1f-D1EtfRBh9d-114" value="&lt;font color=&quot;#ffffff&quot;&gt;-&lt;/font&gt;" style="ellipse;whiteSpace=wrap;html=1;aspect=fixed;fillColor=#3333FF;" vertex="1" parent="1">
          <mxGeometry x="-542" y="-466" width="10" height="10" as="geometry" />
        </mxCell>
        <mxCell id="J039G_M1f-D1EtfRBh9d-115" value="&lt;font color=&quot;#ffffff&quot;&gt;-&lt;/font&gt;" style="ellipse;whiteSpace=wrap;html=1;aspect=fixed;fillColor=#3333FF;" vertex="1" parent="1">
          <mxGeometry x="-498" y="-466" width="10" height="10" as="geometry" />
        </mxCell>
        <mxCell id="J039G_M1f-D1EtfRBh9d-116" value="&lt;font color=&quot;#ffffff&quot;&gt;-&lt;/font&gt;" style="ellipse;whiteSpace=wrap;html=1;aspect=fixed;fillColor=#3333FF;" vertex="1" parent="1">
          <mxGeometry x="-459" y="-466" width="10" height="10" as="geometry" />
        </mxCell>
        <mxCell id="J039G_M1f-D1EtfRBh9d-117" value="&lt;font color=&quot;#ffffff&quot;&gt;-&lt;/font&gt;" style="ellipse;whiteSpace=wrap;html=1;aspect=fixed;fillColor=#3333FF;" vertex="1" parent="1">
          <mxGeometry x="-415" y="-466" width="10" height="10" as="geometry" />
        </mxCell>
        <mxCell id="J039G_M1f-D1EtfRBh9d-119" value="" style="endArrow=classic;html=1;rounded=0;" edge="1" parent="1">
          <mxGeometry width="50" height="50" relative="1" as="geometry">
            <mxPoint x="-730" y="-520" as="sourcePoint" />
            <mxPoint x="-700" y="-500" as="targetPoint" />
          </mxGeometry>
        </mxCell>
        <mxCell id="J039G_M1f-D1EtfRBh9d-120" value="" style="endArrow=classic;html=1;rounded=0;entryX=1;entryY=1;entryDx=0;entryDy=0;exitX=1;exitY=1;exitDx=0;exitDy=0;" edge="1" parent="1" source="J039G_M1f-D1EtfRBh9d-39" target="J039G_M1f-D1EtfRBh9d-102">
          <mxGeometry width="50" height="50" relative="1" as="geometry">
            <mxPoint x="-600" y="-230" as="sourcePoint" />
            <mxPoint x="-550" y="-280" as="targetPoint" />
          </mxGeometry>
        </mxCell>
        <mxCell id="J039G_M1f-D1EtfRBh9d-121" value="" style="endArrow=classic;html=1;rounded=0;entryX=0;entryY=1;entryDx=0;entryDy=0;" edge="1" parent="1" target="J039G_M1f-D1EtfRBh9d-102">
          <mxGeometry width="50" height="50" relative="1" as="geometry">
            <mxPoint x="-720" y="-470" as="sourcePoint" />
            <mxPoint x="-650" y="-250" as="targetPoint" />
          </mxGeometry>
        </mxCell>
        <mxCell id="J039G_M1f-D1EtfRBh9d-122" value="" style="endArrow=classic;html=1;rounded=0;exitX=1;exitY=0;exitDx=0;exitDy=0;entryX=1;entryY=0;entryDx=0;entryDy=0;" edge="1" parent="1" source="J039G_M1f-D1EtfRBh9d-26" target="J039G_M1f-D1EtfRBh9d-102">
          <mxGeometry width="50" height="50" relative="1" as="geometry">
            <mxPoint x="-630" y="-230" as="sourcePoint" />
            <mxPoint x="-580" y="-280" as="targetPoint" />
          </mxGeometry>
        </mxCell>
        <mxCell id="J039G_M1f-D1EtfRBh9d-124" value="&lt;b&gt;&lt;font color=&quot;#666666&quot; style=&quot;font-size: 15px;&quot;&gt;超导的零电阻实现原理：&lt;/font&gt;&lt;/b&gt;" style="text;html=1;align=center;verticalAlign=middle;resizable=0;points=[];autosize=1;strokeColor=none;fillColor=none;" vertex="1" parent="1">
          <mxGeometry x="-794" y="-325" width="190" height="30" as="geometry" />
        </mxCell>
        <mxCell id="J039G_M1f-D1EtfRBh9d-125" value="&lt;b&gt;&lt;font color=&quot;#9999ff&quot; style=&quot;font-size: 15px;&quot;&gt;物质的组成结构：&lt;/font&gt;&lt;/b&gt;&lt;br&gt;&amp;nbsp; &amp;nbsp; &amp;nbsp; &amp;nbsp; 物质由原子（原子有原子核及内部电子）及外部电子（自由电子构成），金属物质导电，依赖于外部的自由电子。&lt;br&gt;&lt;b&gt;&lt;font style=&quot;font-size: 15px;&quot; color=&quot;#9999ff&quot;&gt;非超导通电后的内部状态：&lt;/font&gt;&lt;/b&gt;&lt;br&gt;&amp;nbsp; &amp;nbsp; &amp;nbsp; &amp;nbsp; &amp;nbsp;常温稳定态下由带正点的原子核形成规律排布的晶格，处于晶格上的原子并非静态而是在做颤动，自由电子也在颤动。&lt;br&gt;当给导体施加电压的时候，电子开始朝一个方向运动，这个时候就会出现前进的电子撞上晶格上的原子并反弹撞上正朝前&lt;br&gt;运动的的电子，同时晶格上的原子也颤动得更剧烈，如此碰撞电子前进的路线出现拥挤、撞击、产生了能量（焦耳热的来源）。&lt;br&gt;&lt;b&gt;&lt;font style=&quot;font-size: 15px;&quot; color=&quot;#99004d&quot;&gt;超导材料制作思路：&lt;/font&gt;&lt;br&gt;&lt;/b&gt;&amp;nbsp; &amp;nbsp; &amp;nbsp; &amp;nbsp; &amp;nbsp; &amp;nbsp;改变导体晶格上的原子颤动幅度，使其尽可能幅度小（或者禁止状态——这个幅度被称为&lt;b style=&quot;border-color: var(--border-color);&quot;&gt;“声子”&lt;/b&gt;），&lt;br&gt;让电子在前进的轨迹上，不受任何干扰的把能量向前推进。&lt;br&gt;&lt;b&gt;&lt;font color=&quot;#666666&quot; style=&quot;font-size: 15px;&quot;&gt;宏观制作方式：&lt;/font&gt;&lt;/b&gt;&lt;br&gt;方法一：使用物理干涉，加压，冷却导体，以便固定晶格上的原子，使电子得到干净的前进轨迹。&lt;br&gt;方法二：利用物质化学原子属性的干涉，参入杂质原子去束缚导体上的晶格原子，也能活得干净的电子路径。&lt;br&gt;方法三：向真空环境下的石墨烯充入自由电子?&lt;br&gt;方法四：同步原子与电子碰撞频率采集焦耳热能，并实时转化为电能返回导体（违背了能量守恒定律，也就是说采集的热能驱动不了&lt;br&gt;热转电所需要的能量）。&lt;br&gt;方法五：。。。。。。" style="text;html=1;align=left;verticalAlign=middle;resizable=0;points=[];autosize=1;strokeColor=none;fillColor=none;" vertex="1" parent="1">
          <mxGeometry x="-728" y="-277" width="720" height="260" as="geometry" />
        </mxCell>
        <mxCell id="J039G_M1f-D1EtfRBh9d-126" value="&lt;b&gt;&lt;font color=&quot;#cc0000&quot;&gt;声子&lt;/font&gt;&lt;/b&gt;" style="text;html=1;align=center;verticalAlign=middle;resizable=0;points=[];autosize=1;strokeColor=none;fillColor=none;" vertex="1" parent="1">
          <mxGeometry x="-702" y="-514" width="50" height="30" as="geometry" />
        </mxCell>
      </root>
    </mxGraphModel>
  </diagram>
</mxfile>
